<?xml version="1.0" encoding="utf-8" standalone="no"?>
<!DOCTYPE svg PUBLIC "-//W3C//DTD SVG 1.1//EN"
  "http://www.w3.org/Graphics/SVG/1.1/DTD/svg11.dtd">
<svg xmlns:xlink="http://www.w3.org/1999/xlink" width="460.8pt" height="345.6pt" viewBox="0 0 460.8 345.6" xmlns="http://www.w3.org/2000/svg" version="1.1">
 <metadata>
  <rdf:RDF xmlns:dc="http://purl.org/dc/elements/1.1/" xmlns:cc="http://creativecommons.org/ns#" xmlns:rdf="http://www.w3.org/1999/02/22-rdf-syntax-ns#">
   <cc:Work>
    <dc:type rdf:resource="http://purl.org/dc/dcmitype/StillImage"/>
    <dc:date>2025-04-23T17:53:48.759121</dc:date>
    <dc:format>image/svg+xml</dc:format>
    <dc:creator>
     <cc:Agent>
      <dc:title>Matplotlib v3.9.2, https://matplotlib.org/</dc:title>
     </cc:Agent>
    </dc:creator>
   </cc:Work>
  </rdf:RDF>
 </metadata>
 <defs>
  <style type="text/css">*{stroke-linejoin: round; stroke-linecap: butt}</style>
 </defs>
 <g id="figure_1">
  <g id="patch_1">
   <path d="M 0 345.6 
L 460.8 345.6 
L 460.8 0 
L 0 0 
z
" style="fill: #ffffff"/>
  </g>
  <g id="axes_1">
   <g id="patch_2">
    <path d="M 80.03 292.12 
L 438.133761 292.12 
L 438.133761 15.12 
L 80.03 15.12 
z
" style="fill: #ffffff"/>
   </g>
   <g id="matplotlib.axis_1">
    <g id="xtick_1">
     <g id="line2d_1">
      <defs>
       <path id="mf5a1bacb37" d="M 0 0 
L 0 3.5 
" style="stroke: #000000; stroke-width: 0.8"/>
      </defs>
      <g>
       <use xlink:href="#mf5a1bacb37" x="146.391886" y="292.12" style="stroke: #000000; stroke-width: 0.8"/>
      </g>
     </g>
     <g id="text_1">
      <!-- 750 -->
      <g transform="translate(133.030636 309.757812) scale(0.14 -0.14)">
       <defs>
        <path id="DejaVuSans-37" d="M 525 4666 
L 3525 4666 
L 3525 4397 
L 1831 0 
L 1172 0 
L 2766 4134 
L 525 4134 
L 525 4666 
z
" transform="scale(0.015625)"/>
        <path id="DejaVuSans-35" d="M 691 4666 
L 3169 4666 
L 3169 4134 
L 1269 4134 
L 1269 2991 
Q 1406 3038 1543 3061 
Q 1681 3084 1819 3084 
Q 2600 3084 3056 2656 
Q 3513 2228 3513 1497 
Q 3513 744 3044 326 
Q 2575 -91 1722 -91 
Q 1428 -91 1123 -41 
Q 819 9 494 109 
L 494 744 
Q 775 591 1075 516 
Q 1375 441 1709 441 
Q 2250 441 2565 725 
Q 2881 1009 2881 1497 
Q 2881 1984 2565 2268 
Q 2250 2553 1709 2553 
Q 1456 2553 1204 2497 
Q 953 2441 691 2322 
L 691 4666 
z
" transform="scale(0.015625)"/>
        <path id="DejaVuSans-30" d="M 2034 4250 
Q 1547 4250 1301 3770 
Q 1056 3291 1056 2328 
Q 1056 1369 1301 889 
Q 1547 409 2034 409 
Q 2525 409 2770 889 
Q 3016 1369 3016 2328 
Q 3016 3291 2770 3770 
Q 2525 4250 2034 4250 
z
M 2034 4750 
Q 2819 4750 3233 4129 
Q 3647 3509 3647 2328 
Q 3647 1150 3233 529 
Q 2819 -91 2034 -91 
Q 1250 -91 836 529 
Q 422 1150 422 2328 
Q 422 3509 836 4129 
Q 1250 4750 2034 4750 
z
" transform="scale(0.015625)"/>
       </defs>
       <use xlink:href="#DejaVuSans-37"/>
       <use xlink:href="#DejaVuSans-35" x="63.623047"/>
       <use xlink:href="#DejaVuSans-30" x="127.246094"/>
      </g>
     </g>
    </g>
    <g id="xtick_2">
     <g id="line2d_2">
      <g>
       <use xlink:href="#mf5a1bacb37" x="217.941089" y="292.12" style="stroke: #000000; stroke-width: 0.8"/>
      </g>
     </g>
     <g id="text_2">
      <!-- 800 -->
      <g transform="translate(204.579839 309.757812) scale(0.14 -0.14)">
       <defs>
        <path id="DejaVuSans-38" d="M 2034 2216 
Q 1584 2216 1326 1975 
Q 1069 1734 1069 1313 
Q 1069 891 1326 650 
Q 1584 409 2034 409 
Q 2484 409 2743 651 
Q 3003 894 3003 1313 
Q 3003 1734 2745 1975 
Q 2488 2216 2034 2216 
z
M 1403 2484 
Q 997 2584 770 2862 
Q 544 3141 544 3541 
Q 544 4100 942 4425 
Q 1341 4750 2034 4750 
Q 2731 4750 3128 4425 
Q 3525 4100 3525 3541 
Q 3525 3141 3298 2862 
Q 3072 2584 2669 2484 
Q 3125 2378 3379 2068 
Q 3634 1759 3634 1313 
Q 3634 634 3220 271 
Q 2806 -91 2034 -91 
Q 1263 -91 848 271 
Q 434 634 434 1313 
Q 434 1759 690 2068 
Q 947 2378 1403 2484 
z
M 1172 3481 
Q 1172 3119 1398 2916 
Q 1625 2713 2034 2713 
Q 2441 2713 2670 2916 
Q 2900 3119 2900 3481 
Q 2900 3844 2670 4047 
Q 2441 4250 2034 4250 
Q 1625 4250 1398 4047 
Q 1172 3844 1172 3481 
z
" transform="scale(0.015625)"/>
       </defs>
       <use xlink:href="#DejaVuSans-38"/>
       <use xlink:href="#DejaVuSans-30" x="63.623047"/>
       <use xlink:href="#DejaVuSans-30" x="127.246094"/>
      </g>
     </g>
    </g>
    <g id="xtick_3">
     <g id="line2d_3">
      <g>
       <use xlink:href="#mf5a1bacb37" x="289.490292" y="292.12" style="stroke: #000000; stroke-width: 0.8"/>
      </g>
     </g>
     <g id="text_3">
      <!-- 850 -->
      <g transform="translate(276.129042 309.757812) scale(0.14 -0.14)">
       <use xlink:href="#DejaVuSans-38"/>
       <use xlink:href="#DejaVuSans-35" x="63.623047"/>
       <use xlink:href="#DejaVuSans-30" x="127.246094"/>
      </g>
     </g>
    </g>
    <g id="xtick_4">
     <g id="line2d_4">
      <g>
       <use xlink:href="#mf5a1bacb37" x="361.039495" y="292.12" style="stroke: #000000; stroke-width: 0.8"/>
      </g>
     </g>
     <g id="text_4">
      <!-- 900 -->
      <g transform="translate(347.678245 309.757812) scale(0.14 -0.14)">
       <defs>
        <path id="DejaVuSans-39" d="M 703 97 
L 703 672 
Q 941 559 1184 500 
Q 1428 441 1663 441 
Q 2288 441 2617 861 
Q 2947 1281 2994 2138 
Q 2813 1869 2534 1725 
Q 2256 1581 1919 1581 
Q 1219 1581 811 2004 
Q 403 2428 403 3163 
Q 403 3881 828 4315 
Q 1253 4750 1959 4750 
Q 2769 4750 3195 4129 
Q 3622 3509 3622 2328 
Q 3622 1225 3098 567 
Q 2575 -91 1691 -91 
Q 1453 -91 1209 -44 
Q 966 3 703 97 
z
M 1959 2075 
Q 2384 2075 2632 2365 
Q 2881 2656 2881 3163 
Q 2881 3666 2632 3958 
Q 2384 4250 1959 4250 
Q 1534 4250 1286 3958 
Q 1038 3666 1038 3163 
Q 1038 2656 1286 2365 
Q 1534 2075 1959 2075 
z
" transform="scale(0.015625)"/>
       </defs>
       <use xlink:href="#DejaVuSans-39"/>
       <use xlink:href="#DejaVuSans-30" x="63.623047"/>
       <use xlink:href="#DejaVuSans-30" x="127.246094"/>
      </g>
     </g>
    </g>
    <g id="xtick_5">
     <g id="line2d_5">
      <g>
       <use xlink:href="#mf5a1bacb37" x="432.588698" y="292.12" style="stroke: #000000; stroke-width: 0.8"/>
      </g>
     </g>
     <g id="text_5">
      <!-- 950 -->
      <g transform="translate(419.227448 309.757812) scale(0.14 -0.14)">
       <use xlink:href="#DejaVuSans-39"/>
       <use xlink:href="#DejaVuSans-35" x="63.623047"/>
       <use xlink:href="#DejaVuSans-30" x="127.246094"/>
      </g>
     </g>
    </g>
    <g id="text_6">
     <!-- Offered load [Tb/s] -->
     <g transform="translate(193.267662 327.307187) scale(0.14 -0.14)">
      <defs>
       <path id="DejaVuSans-4f" d="M 2522 4238 
Q 1834 4238 1429 3725 
Q 1025 3213 1025 2328 
Q 1025 1447 1429 934 
Q 1834 422 2522 422 
Q 3209 422 3611 934 
Q 4013 1447 4013 2328 
Q 4013 3213 3611 3725 
Q 3209 4238 2522 4238 
z
M 2522 4750 
Q 3503 4750 4090 4092 
Q 4678 3434 4678 2328 
Q 4678 1225 4090 567 
Q 3503 -91 2522 -91 
Q 1538 -91 948 565 
Q 359 1222 359 2328 
Q 359 3434 948 4092 
Q 1538 4750 2522 4750 
z
" transform="scale(0.015625)"/>
       <path id="DejaVuSans-66" d="M 2375 4863 
L 2375 4384 
L 1825 4384 
Q 1516 4384 1395 4259 
Q 1275 4134 1275 3809 
L 1275 3500 
L 2222 3500 
L 2222 3053 
L 1275 3053 
L 1275 0 
L 697 0 
L 697 3053 
L 147 3053 
L 147 3500 
L 697 3500 
L 697 3744 
Q 697 4328 969 4595 
Q 1241 4863 1831 4863 
L 2375 4863 
z
" transform="scale(0.015625)"/>
       <path id="DejaVuSans-65" d="M 3597 1894 
L 3597 1613 
L 953 1613 
Q 991 1019 1311 708 
Q 1631 397 2203 397 
Q 2534 397 2845 478 
Q 3156 559 3463 722 
L 3463 178 
Q 3153 47 2828 -22 
Q 2503 -91 2169 -91 
Q 1331 -91 842 396 
Q 353 884 353 1716 
Q 353 2575 817 3079 
Q 1281 3584 2069 3584 
Q 2775 3584 3186 3129 
Q 3597 2675 3597 1894 
z
M 3022 2063 
Q 3016 2534 2758 2815 
Q 2500 3097 2075 3097 
Q 1594 3097 1305 2825 
Q 1016 2553 972 2059 
L 3022 2063 
z
" transform="scale(0.015625)"/>
       <path id="DejaVuSans-72" d="M 2631 2963 
Q 2534 3019 2420 3045 
Q 2306 3072 2169 3072 
Q 1681 3072 1420 2755 
Q 1159 2438 1159 1844 
L 1159 0 
L 581 0 
L 581 3500 
L 1159 3500 
L 1159 2956 
Q 1341 3275 1631 3429 
Q 1922 3584 2338 3584 
Q 2397 3584 2469 3576 
Q 2541 3569 2628 3553 
L 2631 2963 
z
" transform="scale(0.015625)"/>
       <path id="DejaVuSans-64" d="M 2906 2969 
L 2906 4863 
L 3481 4863 
L 3481 0 
L 2906 0 
L 2906 525 
Q 2725 213 2448 61 
Q 2172 -91 1784 -91 
Q 1150 -91 751 415 
Q 353 922 353 1747 
Q 353 2572 751 3078 
Q 1150 3584 1784 3584 
Q 2172 3584 2448 3432 
Q 2725 3281 2906 2969 
z
M 947 1747 
Q 947 1113 1208 752 
Q 1469 391 1925 391 
Q 2381 391 2643 752 
Q 2906 1113 2906 1747 
Q 2906 2381 2643 2742 
Q 2381 3103 1925 3103 
Q 1469 3103 1208 2742 
Q 947 2381 947 1747 
z
" transform="scale(0.015625)"/>
       <path id="DejaVuSans-20" transform="scale(0.015625)"/>
       <path id="DejaVuSans-6c" d="M 603 4863 
L 1178 4863 
L 1178 0 
L 603 0 
L 603 4863 
z
" transform="scale(0.015625)"/>
       <path id="DejaVuSans-6f" d="M 1959 3097 
Q 1497 3097 1228 2736 
Q 959 2375 959 1747 
Q 959 1119 1226 758 
Q 1494 397 1959 397 
Q 2419 397 2687 759 
Q 2956 1122 2956 1747 
Q 2956 2369 2687 2733 
Q 2419 3097 1959 3097 
z
M 1959 3584 
Q 2709 3584 3137 3096 
Q 3566 2609 3566 1747 
Q 3566 888 3137 398 
Q 2709 -91 1959 -91 
Q 1206 -91 779 398 
Q 353 888 353 1747 
Q 353 2609 779 3096 
Q 1206 3584 1959 3584 
z
" transform="scale(0.015625)"/>
       <path id="DejaVuSans-61" d="M 2194 1759 
Q 1497 1759 1228 1600 
Q 959 1441 959 1056 
Q 959 750 1161 570 
Q 1363 391 1709 391 
Q 2188 391 2477 730 
Q 2766 1069 2766 1631 
L 2766 1759 
L 2194 1759 
z
M 3341 1997 
L 3341 0 
L 2766 0 
L 2766 531 
Q 2569 213 2275 61 
Q 1981 -91 1556 -91 
Q 1019 -91 701 211 
Q 384 513 384 1019 
Q 384 1609 779 1909 
Q 1175 2209 1959 2209 
L 2766 2209 
L 2766 2266 
Q 2766 2663 2505 2880 
Q 2244 3097 1772 3097 
Q 1472 3097 1187 3025 
Q 903 2953 641 2809 
L 641 3341 
Q 956 3463 1253 3523 
Q 1550 3584 1831 3584 
Q 2591 3584 2966 3190 
Q 3341 2797 3341 1997 
z
" transform="scale(0.015625)"/>
       <path id="DejaVuSans-5b" d="M 550 4863 
L 1875 4863 
L 1875 4416 
L 1125 4416 
L 1125 -397 
L 1875 -397 
L 1875 -844 
L 550 -844 
L 550 4863 
z
" transform="scale(0.015625)"/>
       <path id="DejaVuSans-54" d="M -19 4666 
L 3928 4666 
L 3928 4134 
L 2272 4134 
L 2272 0 
L 1638 0 
L 1638 4134 
L -19 4134 
L -19 4666 
z
" transform="scale(0.015625)"/>
       <path id="DejaVuSans-62" d="M 3116 1747 
Q 3116 2381 2855 2742 
Q 2594 3103 2138 3103 
Q 1681 3103 1420 2742 
Q 1159 2381 1159 1747 
Q 1159 1113 1420 752 
Q 1681 391 2138 391 
Q 2594 391 2855 752 
Q 3116 1113 3116 1747 
z
M 1159 2969 
Q 1341 3281 1617 3432 
Q 1894 3584 2278 3584 
Q 2916 3584 3314 3078 
Q 3713 2572 3713 1747 
Q 3713 922 3314 415 
Q 2916 -91 2278 -91 
Q 1894 -91 1617 61 
Q 1341 213 1159 525 
L 1159 0 
L 581 0 
L 581 4863 
L 1159 4863 
L 1159 2969 
z
" transform="scale(0.015625)"/>
       <path id="DejaVuSans-2f" d="M 1625 4666 
L 2156 4666 
L 531 -594 
L 0 -594 
L 1625 4666 
z
" transform="scale(0.015625)"/>
       <path id="DejaVuSans-73" d="M 2834 3397 
L 2834 2853 
Q 2591 2978 2328 3040 
Q 2066 3103 1784 3103 
Q 1356 3103 1142 2972 
Q 928 2841 928 2578 
Q 928 2378 1081 2264 
Q 1234 2150 1697 2047 
L 1894 2003 
Q 2506 1872 2764 1633 
Q 3022 1394 3022 966 
Q 3022 478 2636 193 
Q 2250 -91 1575 -91 
Q 1294 -91 989 -36 
Q 684 19 347 128 
L 347 722 
Q 666 556 975 473 
Q 1284 391 1588 391 
Q 1994 391 2212 530 
Q 2431 669 2431 922 
Q 2431 1156 2273 1281 
Q 2116 1406 1581 1522 
L 1381 1569 
Q 847 1681 609 1914 
Q 372 2147 372 2553 
Q 372 3047 722 3315 
Q 1072 3584 1716 3584 
Q 2034 3584 2315 3537 
Q 2597 3491 2834 3397 
z
" transform="scale(0.015625)"/>
       <path id="DejaVuSans-5d" d="M 1947 4863 
L 1947 -844 
L 622 -844 
L 622 -397 
L 1369 -397 
L 1369 4416 
L 622 4416 
L 622 4863 
L 1947 4863 
z
" transform="scale(0.015625)"/>
      </defs>
      <use xlink:href="#DejaVuSans-4f"/>
      <use xlink:href="#DejaVuSans-66" x="78.710938"/>
      <use xlink:href="#DejaVuSans-66" x="113.916016"/>
      <use xlink:href="#DejaVuSans-65" x="149.121094"/>
      <use xlink:href="#DejaVuSans-72" x="210.644531"/>
      <use xlink:href="#DejaVuSans-65" x="249.507812"/>
      <use xlink:href="#DejaVuSans-64" x="311.03125"/>
      <use xlink:href="#DejaVuSans-20" x="374.507812"/>
      <use xlink:href="#DejaVuSans-6c" x="406.294922"/>
      <use xlink:href="#DejaVuSans-6f" x="434.078125"/>
      <use xlink:href="#DejaVuSans-61" x="495.259766"/>
      <use xlink:href="#DejaVuSans-64" x="556.539062"/>
      <use xlink:href="#DejaVuSans-20" x="620.015625"/>
      <use xlink:href="#DejaVuSans-5b" x="651.802734"/>
      <use xlink:href="#DejaVuSans-54" x="690.816406"/>
      <use xlink:href="#DejaVuSans-62" x="751.900391"/>
      <use xlink:href="#DejaVuSans-2f" x="815.376953"/>
      <use xlink:href="#DejaVuSans-73" x="849.068359"/>
      <use xlink:href="#DejaVuSans-5d" x="901.167969"/>
     </g>
    </g>
   </g>
   <g id="matplotlib.axis_2">
    <g id="ytick_1">
     <g id="line2d_6">
      <defs>
       <path id="m965e210f8b" d="M 0 0 
L -3.5 0 
" style="stroke: #000000; stroke-width: 0.8"/>
      </defs>
      <g>
       <use xlink:href="#m965e210f8b" x="80.03" y="270.399464" style="stroke: #000000; stroke-width: 0.8"/>
      </g>
     </g>
     <g id="text_7">
      <!-- 0.350 -->
      <g transform="translate(32.950625 275.718371) scale(0.14 -0.14)">
       <defs>
        <path id="DejaVuSans-2e" d="M 684 794 
L 1344 794 
L 1344 0 
L 684 0 
L 684 794 
z
" transform="scale(0.015625)"/>
        <path id="DejaVuSans-33" d="M 2597 2516 
Q 3050 2419 3304 2112 
Q 3559 1806 3559 1356 
Q 3559 666 3084 287 
Q 2609 -91 1734 -91 
Q 1441 -91 1130 -33 
Q 819 25 488 141 
L 488 750 
Q 750 597 1062 519 
Q 1375 441 1716 441 
Q 2309 441 2620 675 
Q 2931 909 2931 1356 
Q 2931 1769 2642 2001 
Q 2353 2234 1838 2234 
L 1294 2234 
L 1294 2753 
L 1863 2753 
Q 2328 2753 2575 2939 
Q 2822 3125 2822 3475 
Q 2822 3834 2567 4026 
Q 2313 4219 1838 4219 
Q 1578 4219 1281 4162 
Q 984 4106 628 3988 
L 628 4550 
Q 988 4650 1302 4700 
Q 1616 4750 1894 4750 
Q 2613 4750 3031 4423 
Q 3450 4097 3450 3541 
Q 3450 3153 3228 2886 
Q 3006 2619 2597 2516 
z
" transform="scale(0.015625)"/>
       </defs>
       <use xlink:href="#DejaVuSans-30"/>
       <use xlink:href="#DejaVuSans-2e" x="63.623047"/>
       <use xlink:href="#DejaVuSans-33" x="95.410156"/>
       <use xlink:href="#DejaVuSans-35" x="159.033203"/>
       <use xlink:href="#DejaVuSans-30" x="222.65625"/>
      </g>
     </g>
    </g>
    <g id="ytick_2">
     <g id="line2d_7">
      <g>
       <use xlink:href="#m965e210f8b" x="80.03" y="236.371809" style="stroke: #000000; stroke-width: 0.8"/>
      </g>
     </g>
     <g id="text_8">
      <!-- 0.375 -->
      <g transform="translate(32.950625 241.690715) scale(0.14 -0.14)">
       <use xlink:href="#DejaVuSans-30"/>
       <use xlink:href="#DejaVuSans-2e" x="63.623047"/>
       <use xlink:href="#DejaVuSans-33" x="95.410156"/>
       <use xlink:href="#DejaVuSans-37" x="159.033203"/>
       <use xlink:href="#DejaVuSans-35" x="222.65625"/>
      </g>
     </g>
    </g>
    <g id="ytick_3">
     <g id="line2d_8">
      <g>
       <use xlink:href="#m965e210f8b" x="80.03" y="202.344153" style="stroke: #000000; stroke-width: 0.8"/>
      </g>
     </g>
     <g id="text_9">
      <!-- 0.400 -->
      <g transform="translate(32.950625 207.66306) scale(0.14 -0.14)">
       <defs>
        <path id="DejaVuSans-34" d="M 2419 4116 
L 825 1625 
L 2419 1625 
L 2419 4116 
z
M 2253 4666 
L 3047 4666 
L 3047 1625 
L 3713 1625 
L 3713 1100 
L 3047 1100 
L 3047 0 
L 2419 0 
L 2419 1100 
L 313 1100 
L 313 1709 
L 2253 4666 
z
" transform="scale(0.015625)"/>
       </defs>
       <use xlink:href="#DejaVuSans-30"/>
       <use xlink:href="#DejaVuSans-2e" x="63.623047"/>
       <use xlink:href="#DejaVuSans-34" x="95.410156"/>
       <use xlink:href="#DejaVuSans-30" x="159.033203"/>
       <use xlink:href="#DejaVuSans-30" x="222.65625"/>
      </g>
     </g>
    </g>
    <g id="ytick_4">
     <g id="line2d_9">
      <g>
       <use xlink:href="#m965e210f8b" x="80.03" y="168.316498" style="stroke: #000000; stroke-width: 0.8"/>
      </g>
     </g>
     <g id="text_10">
      <!-- 0.425 -->
      <g transform="translate(32.950625 173.635404) scale(0.14 -0.14)">
       <defs>
        <path id="DejaVuSans-32" d="M 1228 531 
L 3431 531 
L 3431 0 
L 469 0 
L 469 531 
Q 828 903 1448 1529 
Q 2069 2156 2228 2338 
Q 2531 2678 2651 2914 
Q 2772 3150 2772 3378 
Q 2772 3750 2511 3984 
Q 2250 4219 1831 4219 
Q 1534 4219 1204 4116 
Q 875 4013 500 3803 
L 500 4441 
Q 881 4594 1212 4672 
Q 1544 4750 1819 4750 
Q 2544 4750 2975 4387 
Q 3406 4025 3406 3419 
Q 3406 3131 3298 2873 
Q 3191 2616 2906 2266 
Q 2828 2175 2409 1742 
Q 1991 1309 1228 531 
z
" transform="scale(0.015625)"/>
       </defs>
       <use xlink:href="#DejaVuSans-30"/>
       <use xlink:href="#DejaVuSans-2e" x="63.623047"/>
       <use xlink:href="#DejaVuSans-34" x="95.410156"/>
       <use xlink:href="#DejaVuSans-32" x="159.033203"/>
       <use xlink:href="#DejaVuSans-35" x="222.65625"/>
      </g>
     </g>
    </g>
    <g id="ytick_5">
     <g id="line2d_10">
      <g>
       <use xlink:href="#m965e210f8b" x="80.03" y="134.288842" style="stroke: #000000; stroke-width: 0.8"/>
      </g>
     </g>
     <g id="text_11">
      <!-- 0.450 -->
      <g transform="translate(32.950625 139.607749) scale(0.14 -0.14)">
       <use xlink:href="#DejaVuSans-30"/>
       <use xlink:href="#DejaVuSans-2e" x="63.623047"/>
       <use xlink:href="#DejaVuSans-34" x="95.410156"/>
       <use xlink:href="#DejaVuSans-35" x="159.033203"/>
       <use xlink:href="#DejaVuSans-30" x="222.65625"/>
      </g>
     </g>
    </g>
    <g id="ytick_6">
     <g id="line2d_11">
      <g>
       <use xlink:href="#m965e210f8b" x="80.03" y="100.261187" style="stroke: #000000; stroke-width: 0.8"/>
      </g>
     </g>
     <g id="text_12">
      <!-- 0.475 -->
      <g transform="translate(32.950625 105.580093) scale(0.14 -0.14)">
       <use xlink:href="#DejaVuSans-30"/>
       <use xlink:href="#DejaVuSans-2e" x="63.623047"/>
       <use xlink:href="#DejaVuSans-34" x="95.410156"/>
       <use xlink:href="#DejaVuSans-37" x="159.033203"/>
       <use xlink:href="#DejaVuSans-35" x="222.65625"/>
      </g>
     </g>
    </g>
    <g id="ytick_7">
     <g id="line2d_12">
      <g>
       <use xlink:href="#m965e210f8b" x="80.03" y="66.233531" style="stroke: #000000; stroke-width: 0.8"/>
      </g>
     </g>
     <g id="text_13">
      <!-- 0.500 -->
      <g transform="translate(32.950625 71.552438) scale(0.14 -0.14)">
       <use xlink:href="#DejaVuSans-30"/>
       <use xlink:href="#DejaVuSans-2e" x="63.623047"/>
       <use xlink:href="#DejaVuSans-35" x="95.410156"/>
       <use xlink:href="#DejaVuSans-30" x="159.033203"/>
       <use xlink:href="#DejaVuSans-30" x="222.65625"/>
      </g>
     </g>
    </g>
    <g id="ytick_8">
     <g id="line2d_13">
      <g>
       <use xlink:href="#m965e210f8b" x="80.03" y="32.205876" style="stroke: #000000; stroke-width: 0.8"/>
      </g>
     </g>
     <g id="text_14">
      <!-- 0.525 -->
      <g transform="translate(32.950625 37.524782) scale(0.14 -0.14)">
       <use xlink:href="#DejaVuSans-30"/>
       <use xlink:href="#DejaVuSans-2e" x="63.623047"/>
       <use xlink:href="#DejaVuSans-35" x="95.410156"/>
       <use xlink:href="#DejaVuSans-32" x="159.033203"/>
       <use xlink:href="#DejaVuSans-35" x="222.65625"/>
      </g>
     </g>
    </g>
    <g id="text_15">
     <!-- RSS metric -->
     <g transform="translate(26.039063 192.1375) rotate(-90) scale(0.14 -0.14)">
      <defs>
       <path id="DejaVuSans-52" d="M 2841 2188 
Q 3044 2119 3236 1894 
Q 3428 1669 3622 1275 
L 4263 0 
L 3584 0 
L 2988 1197 
Q 2756 1666 2539 1819 
Q 2322 1972 1947 1972 
L 1259 1972 
L 1259 0 
L 628 0 
L 628 4666 
L 2053 4666 
Q 2853 4666 3247 4331 
Q 3641 3997 3641 3322 
Q 3641 2881 3436 2590 
Q 3231 2300 2841 2188 
z
M 1259 4147 
L 1259 2491 
L 2053 2491 
Q 2509 2491 2742 2702 
Q 2975 2913 2975 3322 
Q 2975 3731 2742 3939 
Q 2509 4147 2053 4147 
L 1259 4147 
z
" transform="scale(0.015625)"/>
       <path id="DejaVuSans-53" d="M 3425 4513 
L 3425 3897 
Q 3066 4069 2747 4153 
Q 2428 4238 2131 4238 
Q 1616 4238 1336 4038 
Q 1056 3838 1056 3469 
Q 1056 3159 1242 3001 
Q 1428 2844 1947 2747 
L 2328 2669 
Q 3034 2534 3370 2195 
Q 3706 1856 3706 1288 
Q 3706 609 3251 259 
Q 2797 -91 1919 -91 
Q 1588 -91 1214 -16 
Q 841 59 441 206 
L 441 856 
Q 825 641 1194 531 
Q 1563 422 1919 422 
Q 2459 422 2753 634 
Q 3047 847 3047 1241 
Q 3047 1584 2836 1778 
Q 2625 1972 2144 2069 
L 1759 2144 
Q 1053 2284 737 2584 
Q 422 2884 422 3419 
Q 422 4038 858 4394 
Q 1294 4750 2059 4750 
Q 2388 4750 2728 4690 
Q 3069 4631 3425 4513 
z
" transform="scale(0.015625)"/>
       <path id="DejaVuSans-6d" d="M 3328 2828 
Q 3544 3216 3844 3400 
Q 4144 3584 4550 3584 
Q 5097 3584 5394 3201 
Q 5691 2819 5691 2113 
L 5691 0 
L 5113 0 
L 5113 2094 
Q 5113 2597 4934 2840 
Q 4756 3084 4391 3084 
Q 3944 3084 3684 2787 
Q 3425 2491 3425 1978 
L 3425 0 
L 2847 0 
L 2847 2094 
Q 2847 2600 2669 2842 
Q 2491 3084 2119 3084 
Q 1678 3084 1418 2786 
Q 1159 2488 1159 1978 
L 1159 0 
L 581 0 
L 581 3500 
L 1159 3500 
L 1159 2956 
Q 1356 3278 1631 3431 
Q 1906 3584 2284 3584 
Q 2666 3584 2933 3390 
Q 3200 3197 3328 2828 
z
" transform="scale(0.015625)"/>
       <path id="DejaVuSans-74" d="M 1172 4494 
L 1172 3500 
L 2356 3500 
L 2356 3053 
L 1172 3053 
L 1172 1153 
Q 1172 725 1289 603 
Q 1406 481 1766 481 
L 2356 481 
L 2356 0 
L 1766 0 
Q 1100 0 847 248 
Q 594 497 594 1153 
L 594 3053 
L 172 3053 
L 172 3500 
L 594 3500 
L 594 4494 
L 1172 4494 
z
" transform="scale(0.015625)"/>
       <path id="DejaVuSans-69" d="M 603 3500 
L 1178 3500 
L 1178 0 
L 603 0 
L 603 3500 
z
M 603 4863 
L 1178 4863 
L 1178 4134 
L 603 4134 
L 603 4863 
z
" transform="scale(0.015625)"/>
       <path id="DejaVuSans-63" d="M 3122 3366 
L 3122 2828 
Q 2878 2963 2633 3030 
Q 2388 3097 2138 3097 
Q 1578 3097 1268 2742 
Q 959 2388 959 1747 
Q 959 1106 1268 751 
Q 1578 397 2138 397 
Q 2388 397 2633 464 
Q 2878 531 3122 666 
L 3122 134 
Q 2881 22 2623 -34 
Q 2366 -91 2075 -91 
Q 1284 -91 818 406 
Q 353 903 353 1747 
Q 353 2603 823 3093 
Q 1294 3584 2113 3584 
Q 2378 3584 2631 3529 
Q 2884 3475 3122 3366 
z
" transform="scale(0.015625)"/>
      </defs>
      <use xlink:href="#DejaVuSans-52"/>
      <use xlink:href="#DejaVuSans-53" x="69.482422"/>
      <use xlink:href="#DejaVuSans-53" x="132.958984"/>
      <use xlink:href="#DejaVuSans-20" x="196.435547"/>
      <use xlink:href="#DejaVuSans-6d" x="228.222656"/>
      <use xlink:href="#DejaVuSans-65" x="325.634766"/>
      <use xlink:href="#DejaVuSans-74" x="387.158203"/>
      <use xlink:href="#DejaVuSans-72" x="426.367188"/>
      <use xlink:href="#DejaVuSans-69" x="467.480469"/>
      <use xlink:href="#DejaVuSans-63" x="495.263672"/>
     </g>
    </g>
   </g>
   <g id="line2d_14">
    <path d="M 96.307444 213.589365 
L 142.814426 225.650408 
L 189.321408 237.634449 
L 235.82839 247.883618 
L 282.335372 257.099236 
L 328.842354 264.811636 
L 375.349336 270.663431 
L 421.856318 275.913364 
" clip-path="url(#p74ba9f634e)" style="fill: none; stroke: #ff0000; stroke-width: 1.5; stroke-linecap: square"/>
    <defs>
     <path id="mc78a3ec20c" d="M -1.75 3.5 
L 0 1.75 
L 1.75 3.5 
L 3.5 1.75 
L 1.75 0 
L 3.5 -1.75 
L 1.75 -3.5 
L 0 -1.75 
L -1.75 -3.5 
L -3.5 -1.75 
L -1.75 0 
L -3.5 1.75 
z
" style="stroke: #ffffff; stroke-linejoin: miter"/>
    </defs>
    <g clip-path="url(#p74ba9f634e)">
     <use xlink:href="#mc78a3ec20c" x="96.307444" y="213.589365" style="fill: #ff0000; stroke: #ffffff; stroke-linejoin: miter"/>
     <use xlink:href="#mc78a3ec20c" x="142.814426" y="225.650408" style="fill: #ff0000; stroke: #ffffff; stroke-linejoin: miter"/>
     <use xlink:href="#mc78a3ec20c" x="189.321408" y="237.634449" style="fill: #ff0000; stroke: #ffffff; stroke-linejoin: miter"/>
     <use xlink:href="#mc78a3ec20c" x="235.82839" y="247.883618" style="fill: #ff0000; stroke: #ffffff; stroke-linejoin: miter"/>
     <use xlink:href="#mc78a3ec20c" x="282.335372" y="257.099236" style="fill: #ff0000; stroke: #ffffff; stroke-linejoin: miter"/>
     <use xlink:href="#mc78a3ec20c" x="328.842354" y="264.811636" style="fill: #ff0000; stroke: #ffffff; stroke-linejoin: miter"/>
     <use xlink:href="#mc78a3ec20c" x="375.349336" y="270.663431" style="fill: #ff0000; stroke: #ffffff; stroke-linejoin: miter"/>
     <use xlink:href="#mc78a3ec20c" x="421.856318" y="275.913364" style="fill: #ff0000; stroke: #ffffff; stroke-linejoin: miter"/>
    </g>
   </g>
   <g id="line2d_15">
    <path d="M 96.307444 147.565192 
L 142.814426 161.748275 
L 189.321408 173.609242 
L 235.82839 181.954877 
L 282.335372 191.067213 
L 328.842354 198.654989 
L 375.349336 206.397822 
L 421.856318 213.856363 
" clip-path="url(#p74ba9f634e)" style="fill: none; stroke: #008000; stroke-width: 1.5; stroke-linecap: square"/>
    <defs>
     <path id="maea04b6c91" d="M -1.166667 3.5 
L 1.166667 3.5 
L 1.166667 1.166667 
L 3.5 1.166667 
L 3.5 -1.166667 
L 1.166667 -1.166667 
L 1.166667 -3.5 
L -1.166667 -3.5 
L -1.166667 -1.166667 
L -3.5 -1.166667 
L -3.5 1.166667 
L -1.166667 1.166667 
z
" style="stroke: #ffffff; stroke-linejoin: miter"/>
    </defs>
    <g clip-path="url(#p74ba9f634e)">
     <use xlink:href="#maea04b6c91" x="96.307444" y="147.565192" style="fill: #008000; stroke: #ffffff; stroke-linejoin: miter"/>
     <use xlink:href="#maea04b6c91" x="142.814426" y="161.748275" style="fill: #008000; stroke: #ffffff; stroke-linejoin: miter"/>
     <use xlink:href="#maea04b6c91" x="189.321408" y="173.609242" style="fill: #008000; stroke: #ffffff; stroke-linejoin: miter"/>
     <use xlink:href="#maea04b6c91" x="235.82839" y="181.954877" style="fill: #008000; stroke: #ffffff; stroke-linejoin: miter"/>
     <use xlink:href="#maea04b6c91" x="282.335372" y="191.067213" style="fill: #008000; stroke: #ffffff; stroke-linejoin: miter"/>
     <use xlink:href="#maea04b6c91" x="328.842354" y="198.654989" style="fill: #008000; stroke: #ffffff; stroke-linejoin: miter"/>
     <use xlink:href="#maea04b6c91" x="375.349336" y="206.397822" style="fill: #008000; stroke: #ffffff; stroke-linejoin: miter"/>
     <use xlink:href="#maea04b6c91" x="421.856318" y="213.856363" style="fill: #008000; stroke: #ffffff; stroke-linejoin: miter"/>
    </g>
   </g>
   <g id="line2d_16">
    <path d="M 96.307444 53.998017 
L 142.814426 66.698376 
L 189.321408 79.211551 
L 235.82839 90.758978 
L 282.335372 103.5761 
L 328.842354 115.062175 
L 375.349336 126.244412 
L 421.856318 135.703594 
" clip-path="url(#p74ba9f634e)" style="fill: none; stroke: #000000; stroke-width: 1.5; stroke-linecap: square"/>
    <defs>
     <path id="me7becd2926" d="M 0 -3.5 
L -0.785799 -1.081559 
L -3.328698 -1.081559 
L -1.271449 0.413119 
L -2.057248 2.831559 
L -0 1.336881 
L 2.057248 2.831559 
L 1.271449 0.413119 
L 3.328698 -1.081559 
L 0.785799 -1.081559 
z
" style="stroke: #ffffff; stroke-linejoin: bevel"/>
    </defs>
    <g clip-path="url(#p74ba9f634e)">
     <use xlink:href="#me7becd2926" x="96.307444" y="53.998017" style="stroke: #ffffff; stroke-linejoin: bevel"/>
     <use xlink:href="#me7becd2926" x="142.814426" y="66.698376" style="stroke: #ffffff; stroke-linejoin: bevel"/>
     <use xlink:href="#me7becd2926" x="189.321408" y="79.211551" style="stroke: #ffffff; stroke-linejoin: bevel"/>
     <use xlink:href="#me7becd2926" x="235.82839" y="90.758978" style="stroke: #ffffff; stroke-linejoin: bevel"/>
     <use xlink:href="#me7becd2926" x="282.335372" y="103.5761" style="stroke: #ffffff; stroke-linejoin: bevel"/>
     <use xlink:href="#me7becd2926" x="328.842354" y="115.062175" style="stroke: #ffffff; stroke-linejoin: bevel"/>
     <use xlink:href="#me7becd2926" x="375.349336" y="126.244412" style="stroke: #ffffff; stroke-linejoin: bevel"/>
     <use xlink:href="#me7becd2926" x="421.856318" y="135.703594" style="stroke: #ffffff; stroke-linejoin: bevel"/>
    </g>
   </g>
   <g id="line2d_17">
    <path d="M 96.307444 222.907476 
L 142.814426 236.427708 
L 189.321408 248.297553 
L 235.82839 257.111198 
L 282.335372 264.046883 
L 328.842354 270.241075 
L 375.349336 275.076147 
L 421.856318 279.529091 
" clip-path="url(#p74ba9f634e)" style="fill: none; stroke: #a52a2a; stroke-width: 1.5; stroke-linecap: square"/>
    <defs>
     <path id="maf3aa38a5f" d="M 0 -3.5 
L -3.328698 -1.081559 
L -2.057248 2.831559 
L 2.057248 2.831559 
L 3.328698 -1.081559 
z
" style="stroke: #ffffff; stroke-linejoin: miter"/>
    </defs>
    <g clip-path="url(#p74ba9f634e)">
     <use xlink:href="#maf3aa38a5f" x="96.307444" y="222.907476" style="fill: #a52a2a; stroke: #ffffff; stroke-linejoin: miter"/>
     <use xlink:href="#maf3aa38a5f" x="142.814426" y="236.427708" style="fill: #a52a2a; stroke: #ffffff; stroke-linejoin: miter"/>
     <use xlink:href="#maf3aa38a5f" x="189.321408" y="248.297553" style="fill: #a52a2a; stroke: #ffffff; stroke-linejoin: miter"/>
     <use xlink:href="#maf3aa38a5f" x="235.82839" y="257.111198" style="fill: #a52a2a; stroke: #ffffff; stroke-linejoin: miter"/>
     <use xlink:href="#maf3aa38a5f" x="282.335372" y="264.046883" style="fill: #a52a2a; stroke: #ffffff; stroke-linejoin: miter"/>
     <use xlink:href="#maf3aa38a5f" x="328.842354" y="270.241075" style="fill: #a52a2a; stroke: #ffffff; stroke-linejoin: miter"/>
     <use xlink:href="#maf3aa38a5f" x="375.349336" y="275.076147" style="fill: #a52a2a; stroke: #ffffff; stroke-linejoin: miter"/>
     <use xlink:href="#maf3aa38a5f" x="421.856318" y="279.529091" style="fill: #a52a2a; stroke: #ffffff; stroke-linejoin: miter"/>
    </g>
   </g>
   <g id="line2d_18">
    <path d="M 96.307444 142.122821 
L 142.814426 154.02524 
L 189.321408 164.05299 
L 235.82839 173.192648 
L 282.335372 181.036191 
L 328.842354 187.650988 
L 375.349336 195.419634 
L 421.856318 203.09255 
" clip-path="url(#p74ba9f634e)" style="fill: none; stroke: #800080; stroke-width: 1.5; stroke-linecap: square"/>
    <defs>
     <path id="mf5cb72ebd3" d="M 0 3.5 
C 0.928211 3.5 1.81853 3.131218 2.474874 2.474874 
C 3.131218 1.81853 3.5 0.928211 3.5 0 
C 3.5 -0.928211 3.131218 -1.81853 2.474874 -2.474874 
C 1.81853 -3.131218 0.928211 -3.5 0 -3.5 
C -0.928211 -3.5 -1.81853 -3.131218 -2.474874 -2.474874 
C -3.131218 -1.81853 -3.5 -0.928211 -3.5 0 
C -3.5 0.928211 -3.131218 1.81853 -2.474874 2.474874 
C -1.81853 3.131218 -0.928211 3.5 0 3.5 
z
" style="stroke: #ffffff"/>
    </defs>
    <g clip-path="url(#p74ba9f634e)">
     <use xlink:href="#mf5cb72ebd3" x="96.307444" y="142.122821" style="fill: #800080; stroke: #ffffff"/>
     <use xlink:href="#mf5cb72ebd3" x="142.814426" y="154.02524" style="fill: #800080; stroke: #ffffff"/>
     <use xlink:href="#mf5cb72ebd3" x="189.321408" y="164.05299" style="fill: #800080; stroke: #ffffff"/>
     <use xlink:href="#mf5cb72ebd3" x="235.82839" y="173.192648" style="fill: #800080; stroke: #ffffff"/>
     <use xlink:href="#mf5cb72ebd3" x="282.335372" y="181.036191" style="fill: #800080; stroke: #ffffff"/>
     <use xlink:href="#mf5cb72ebd3" x="328.842354" y="187.650988" style="fill: #800080; stroke: #ffffff"/>
     <use xlink:href="#mf5cb72ebd3" x="375.349336" y="195.419634" style="fill: #800080; stroke: #ffffff"/>
     <use xlink:href="#mf5cb72ebd3" x="421.856318" y="203.09255" style="fill: #800080; stroke: #ffffff"/>
    </g>
   </g>
   <g id="line2d_19">
    <path d="M 96.307444 27.710909 
L 142.814426 40.50032 
L 189.321408 52.859773 
L 235.82839 65.843282 
L 282.335372 78.236678 
L 328.842354 88.674228 
L 375.349336 99.136501 
L 421.856318 107.683676 
" clip-path="url(#p74ba9f634e)" style="fill: none; stroke: #ffff00; stroke-width: 1.5; stroke-linecap: square"/>
    <defs>
     <path id="m780329aaeb" d="M -3.5 3.5 
L 3.5 3.5 
L 3.5 -3.5 
L -3.5 -3.5 
z
" style="stroke: #ffffff; stroke-linejoin: miter"/>
    </defs>
    <g clip-path="url(#p74ba9f634e)">
     <use xlink:href="#m780329aaeb" x="96.307444" y="27.710909" style="fill: #ffff00; stroke: #ffffff; stroke-linejoin: miter"/>
     <use xlink:href="#m780329aaeb" x="142.814426" y="40.50032" style="fill: #ffff00; stroke: #ffffff; stroke-linejoin: miter"/>
     <use xlink:href="#m780329aaeb" x="189.321408" y="52.859773" style="fill: #ffff00; stroke: #ffffff; stroke-linejoin: miter"/>
     <use xlink:href="#m780329aaeb" x="235.82839" y="65.843282" style="fill: #ffff00; stroke: #ffffff; stroke-linejoin: miter"/>
     <use xlink:href="#m780329aaeb" x="282.335372" y="78.236678" style="fill: #ffff00; stroke: #ffffff; stroke-linejoin: miter"/>
     <use xlink:href="#m780329aaeb" x="328.842354" y="88.674228" style="fill: #ffff00; stroke: #ffffff; stroke-linejoin: miter"/>
     <use xlink:href="#m780329aaeb" x="375.349336" y="99.136501" style="fill: #ffff00; stroke: #ffffff; stroke-linejoin: miter"/>
     <use xlink:href="#m780329aaeb" x="421.856318" y="107.683676" style="fill: #ffff00; stroke: #ffffff; stroke-linejoin: miter"/>
    </g>
   </g>
   <g id="patch_3">
    <path d="M 80.03 292.12 
L 80.03 15.12 
" style="fill: none; stroke: #000000; stroke-width: 0.8; stroke-linejoin: miter; stroke-linecap: square"/>
   </g>
   <g id="patch_4">
    <path d="M 438.133761 292.12 
L 438.133761 15.12 
" style="fill: none; stroke: #000000; stroke-width: 0.8; stroke-linejoin: miter; stroke-linecap: square"/>
   </g>
   <g id="patch_5">
    <path d="M 80.03 292.12 
L 438.133761 292.12 
" style="fill: none; stroke: #000000; stroke-width: 0.8; stroke-linejoin: miter; stroke-linecap: square"/>
   </g>
   <g id="patch_6">
    <path d="M 80.03 15.12 
L 438.133761 15.12 
" style="fill: none; stroke: #000000; stroke-width: 0.8; stroke-linejoin: miter; stroke-linecap: square"/>
   </g>
   <g id="legend_1">
    <g id="patch_7">
     <path d="M 201.137193 149.61625 
L 317.026568 149.61625 
Q 319.826568 149.61625 319.826568 146.81625 
L 319.826568 24.92 
Q 319.826568 22.12 317.026568 22.12 
L 201.137193 22.12 
Q 198.337193 22.12 198.337193 24.92 
L 198.337193 146.81625 
Q 198.337193 149.61625 201.137193 149.61625 
z
" style="fill: #ffffff; opacity: 0.8; stroke: #cccccc; stroke-linejoin: miter"/>
    </g>
    <g id="line2d_20">
     <path d="M 203.937193 33.457813 
L 217.937193 33.457813 
L 231.937193 33.457813 
" style="fill: none; stroke: #ff0000; stroke-width: 1.5; stroke-linecap: square"/>
     <g>
      <use xlink:href="#mc78a3ec20c" x="217.937193" y="33.457813" style="fill: #ff0000; stroke: #ffffff; stroke-linejoin: miter"/>
     </g>
    </g>
    <g id="text_16">
     <!-- QA -->
     <g transform="translate(243.137193 38.357813) scale(0.14 -0.14)">
      <defs>
       <path id="DejaVuSans-51" d="M 2522 4238 
Q 1834 4238 1429 3725 
Q 1025 3213 1025 2328 
Q 1025 1447 1429 934 
Q 1834 422 2522 422 
Q 3209 422 3611 934 
Q 4013 1447 4013 2328 
Q 4013 3213 3611 3725 
Q 3209 4238 2522 4238 
z
M 3406 84 
L 4238 -825 
L 3475 -825 
L 2784 -78 
Q 2681 -84 2626 -87 
Q 2572 -91 2522 -91 
Q 1538 -91 948 567 
Q 359 1225 359 2328 
Q 359 3434 948 4092 
Q 1538 4750 2522 4750 
Q 3503 4750 4090 4092 
Q 4678 3434 4678 2328 
Q 4678 1516 4351 937 
Q 4025 359 3406 84 
z
" transform="scale(0.015625)"/>
       <path id="DejaVuSans-41" d="M 2188 4044 
L 1331 1722 
L 3047 1722 
L 2188 4044 
z
M 1831 4666 
L 2547 4666 
L 4325 0 
L 3669 0 
L 3244 1197 
L 1141 1197 
L 716 0 
L 50 0 
L 1831 4666 
z
" transform="scale(0.015625)"/>
      </defs>
      <use xlink:href="#DejaVuSans-51"/>
      <use xlink:href="#DejaVuSans-41" x="78.710938"/>
     </g>
    </g>
    <g id="line2d_21">
     <path d="M 203.937193 54.007188 
L 217.937193 54.007188 
L 231.937193 54.007188 
" style="fill: none; stroke: #008000; stroke-width: 1.5; stroke-linecap: square"/>
     <g>
      <use xlink:href="#maea04b6c91" x="217.937193" y="54.007188" style="fill: #008000; stroke: #ffffff; stroke-linejoin: miter"/>
     </g>
    </g>
    <g id="text_17">
     <!-- SFQA-NoC -->
     <g transform="translate(243.137193 58.907188) scale(0.14 -0.14)">
      <defs>
       <path id="DejaVuSans-46" d="M 628 4666 
L 3309 4666 
L 3309 4134 
L 1259 4134 
L 1259 2759 
L 3109 2759 
L 3109 2228 
L 1259 2228 
L 1259 0 
L 628 0 
L 628 4666 
z
" transform="scale(0.015625)"/>
       <path id="DejaVuSans-2d" d="M 313 2009 
L 1997 2009 
L 1997 1497 
L 313 1497 
L 313 2009 
z
" transform="scale(0.015625)"/>
       <path id="DejaVuSans-4e" d="M 628 4666 
L 1478 4666 
L 3547 763 
L 3547 4666 
L 4159 4666 
L 4159 0 
L 3309 0 
L 1241 3903 
L 1241 0 
L 628 0 
L 628 4666 
z
" transform="scale(0.015625)"/>
       <path id="DejaVuSans-43" d="M 4122 4306 
L 4122 3641 
Q 3803 3938 3442 4084 
Q 3081 4231 2675 4231 
Q 1875 4231 1450 3742 
Q 1025 3253 1025 2328 
Q 1025 1406 1450 917 
Q 1875 428 2675 428 
Q 3081 428 3442 575 
Q 3803 722 4122 1019 
L 4122 359 
Q 3791 134 3420 21 
Q 3050 -91 2638 -91 
Q 1578 -91 968 557 
Q 359 1206 359 2328 
Q 359 3453 968 4101 
Q 1578 4750 2638 4750 
Q 3056 4750 3426 4639 
Q 3797 4528 4122 4306 
z
" transform="scale(0.015625)"/>
      </defs>
      <use xlink:href="#DejaVuSans-53"/>
      <use xlink:href="#DejaVuSans-46" x="63.476562"/>
      <use xlink:href="#DejaVuSans-51" x="120.996094"/>
      <use xlink:href="#DejaVuSans-41" x="199.707031"/>
      <use xlink:href="#DejaVuSans-2d" x="265.865234"/>
      <use xlink:href="#DejaVuSans-4e" x="301.949219"/>
      <use xlink:href="#DejaVuSans-6f" x="376.753906"/>
      <use xlink:href="#DejaVuSans-43" x="437.935547"/>
     </g>
    </g>
    <g id="line2d_22">
     <path d="M 203.937193 74.556563 
L 217.937193 74.556563 
L 231.937193 74.556563 
" style="fill: none; stroke: #000000; stroke-width: 1.5; stroke-linecap: square"/>
     <g>
      <use xlink:href="#me7becd2926" x="217.937193" y="74.556563" style="stroke: #ffffff; stroke-linejoin: bevel"/>
     </g>
    </g>
    <g id="text_18">
     <!-- SFQA-RSS -->
     <g transform="translate(243.137193 79.456563) scale(0.14 -0.14)">
      <use xlink:href="#DejaVuSans-53"/>
      <use xlink:href="#DejaVuSans-46" x="63.476562"/>
      <use xlink:href="#DejaVuSans-51" x="120.996094"/>
      <use xlink:href="#DejaVuSans-41" x="199.707031"/>
      <use xlink:href="#DejaVuSans-2d" x="265.865234"/>
      <use xlink:href="#DejaVuSans-52" x="301.949219"/>
      <use xlink:href="#DejaVuSans-53" x="371.431641"/>
      <use xlink:href="#DejaVuSans-53" x="434.908203"/>
     </g>
    </g>
    <g id="line2d_23">
     <path d="M 203.937193 95.105938 
L 217.937193 95.105938 
L 231.937193 95.105938 
" style="fill: none; stroke: #a52a2a; stroke-width: 1.5; stroke-linecap: square"/>
     <g>
      <use xlink:href="#maf3aa38a5f" x="217.937193" y="95.105938" style="fill: #a52a2a; stroke: #ffffff; stroke-linejoin: miter"/>
     </g>
    </g>
    <g id="text_19">
     <!-- SAP -->
     <g transform="translate(243.137193 100.005938) scale(0.14 -0.14)">
      <defs>
       <path id="DejaVuSans-50" d="M 1259 4147 
L 1259 2394 
L 2053 2394 
Q 2494 2394 2734 2622 
Q 2975 2850 2975 3272 
Q 2975 3691 2734 3919 
Q 2494 4147 2053 4147 
L 1259 4147 
z
M 628 4666 
L 2053 4666 
Q 2838 4666 3239 4311 
Q 3641 3956 3641 3272 
Q 3641 2581 3239 2228 
Q 2838 1875 2053 1875 
L 1259 1875 
L 1259 0 
L 628 0 
L 628 4666 
z
" transform="scale(0.015625)"/>
      </defs>
      <use xlink:href="#DejaVuSans-53"/>
      <use xlink:href="#DejaVuSans-41" x="65.351562"/>
      <use xlink:href="#DejaVuSans-50" x="133.759766"/>
     </g>
    </g>
    <g id="line2d_24">
     <path d="M 203.937193 115.655313 
L 217.937193 115.655313 
L 231.937193 115.655313 
" style="fill: none; stroke: #800080; stroke-width: 1.5; stroke-linecap: square"/>
     <g>
      <use xlink:href="#mf5cb72ebd3" x="217.937193" y="115.655313" style="fill: #800080; stroke: #ffffff"/>
     </g>
    </g>
    <g id="text_20">
     <!-- FA-NoC -->
     <g transform="translate(243.137193 120.555313) scale(0.14 -0.14)">
      <use xlink:href="#DejaVuSans-46"/>
      <use xlink:href="#DejaVuSans-41" x="48.394531"/>
      <use xlink:href="#DejaVuSans-2d" x="114.552734"/>
      <use xlink:href="#DejaVuSans-4e" x="150.636719"/>
      <use xlink:href="#DejaVuSans-6f" x="225.441406"/>
      <use xlink:href="#DejaVuSans-43" x="286.623047"/>
     </g>
    </g>
    <g id="line2d_25">
     <path d="M 203.937193 136.204688 
L 217.937193 136.204688 
L 231.937193 136.204688 
" style="fill: none; stroke: #ffff00; stroke-width: 1.5; stroke-linecap: square"/>
     <g>
      <use xlink:href="#m780329aaeb" x="217.937193" y="136.204688" style="fill: #ffff00; stroke: #ffffff; stroke-linejoin: miter"/>
     </g>
    </g>
    <g id="text_21">
     <!-- FA-RSS -->
     <g transform="translate(243.137193 141.104688) scale(0.14 -0.14)">
      <use xlink:href="#DejaVuSans-46"/>
      <use xlink:href="#DejaVuSans-41" x="48.394531"/>
      <use xlink:href="#DejaVuSans-2d" x="114.552734"/>
      <use xlink:href="#DejaVuSans-52" x="150.636719"/>
      <use xlink:href="#DejaVuSans-53" x="220.119141"/>
      <use xlink:href="#DejaVuSans-53" x="283.595703"/>
     </g>
    </g>
   </g>
  </g>
 </g>
 <defs>
  <clipPath id="p74ba9f634e">
   <rect x="80.03" y="15.12" width="358.103761" height="277"/>
  </clipPath>
 </defs>
</svg>
