<?xml version="1.0" encoding="utf-8" standalone="no"?>
<!DOCTYPE svg PUBLIC "-//W3C//DTD SVG 1.1//EN"
  "http://www.w3.org/Graphics/SVG/1.1/DTD/svg11.dtd">
<svg xmlns:xlink="http://www.w3.org/1999/xlink" width="460.8pt" height="345.6pt" viewBox="0 0 460.8 345.6" xmlns="http://www.w3.org/2000/svg" version="1.1">
 <metadata>
  <rdf:RDF xmlns:dc="http://purl.org/dc/elements/1.1/" xmlns:cc="http://creativecommons.org/ns#" xmlns:rdf="http://www.w3.org/1999/02/22-rdf-syntax-ns#">
   <cc:Work>
    <dc:type rdf:resource="http://purl.org/dc/dcmitype/StillImage"/>
    <dc:date>2024-12-04T23:41:06.288662</dc:date>
    <dc:format>image/svg+xml</dc:format>
    <dc:creator>
     <cc:Agent>
      <dc:title>Matplotlib v3.9.2, https://matplotlib.org/</dc:title>
     </cc:Agent>
    </dc:creator>
   </cc:Work>
  </rdf:RDF>
 </metadata>
 <defs>
  <style type="text/css">*{stroke-linejoin: round; stroke-linecap: butt}</style>
 </defs>
 <g id="figure_1">
  <g id="patch_1">
   <path d="M 0 345.6 
L 460.8 345.6 
L 460.8 0 
L 0 0 
z
" style="fill: #ffffff"/>
  </g>
  <g id="axes_1">
   <g id="patch_2">
    <path d="M 67.08125 294.64 
L 440.477314 294.64 
L 440.477314 14.04 
L 67.08125 14.04 
z
" style="fill: #ffffff"/>
   </g>
   <g id="matplotlib.axis_1">
    <g id="xtick_1">
     <g id="line2d_1">
      <defs>
       <path id="m16df8e1739" d="M 0 0 
L 0 3.5 
" style="stroke: #000000; stroke-width: 0.8"/>
      </defs>
      <g>
       <use xlink:href="#m16df8e1739" x="136.277024" y="294.64" style="stroke: #000000; stroke-width: 0.8"/>
      </g>
     </g>
     <g id="text_1">
      <!-- 750 -->
      <g transform="translate(123.870149 311.517969) scale(0.13 -0.13)">
       <defs>
        <path id="DejaVuSans-37" d="M 525 4666 
L 3525 4666 
L 3525 4397 
L 1831 0 
L 1172 0 
L 2766 4134 
L 525 4134 
L 525 4666 
z
" transform="scale(0.015625)"/>
        <path id="DejaVuSans-35" d="M 691 4666 
L 3169 4666 
L 3169 4134 
L 1269 4134 
L 1269 2991 
Q 1406 3038 1543 3061 
Q 1681 3084 1819 3084 
Q 2600 3084 3056 2656 
Q 3513 2228 3513 1497 
Q 3513 744 3044 326 
Q 2575 -91 1722 -91 
Q 1428 -91 1123 -41 
Q 819 9 494 109 
L 494 744 
Q 775 591 1075 516 
Q 1375 441 1709 441 
Q 2250 441 2565 725 
Q 2881 1009 2881 1497 
Q 2881 1984 2565 2268 
Q 2250 2553 1709 2553 
Q 1456 2553 1204 2497 
Q 953 2441 691 2322 
L 691 4666 
z
" transform="scale(0.015625)"/>
        <path id="DejaVuSans-30" d="M 2034 4250 
Q 1547 4250 1301 3770 
Q 1056 3291 1056 2328 
Q 1056 1369 1301 889 
Q 1547 409 2034 409 
Q 2525 409 2770 889 
Q 3016 1369 3016 2328 
Q 3016 3291 2770 3770 
Q 2525 4250 2034 4250 
z
M 2034 4750 
Q 2819 4750 3233 4129 
Q 3647 3509 3647 2328 
Q 3647 1150 3233 529 
Q 2819 -91 2034 -91 
Q 1250 -91 836 529 
Q 422 1150 422 2328 
Q 422 3509 836 4129 
Q 1250 4750 2034 4750 
z
" transform="scale(0.015625)"/>
       </defs>
       <use xlink:href="#DejaVuSans-37"/>
       <use xlink:href="#DejaVuSans-35" x="63.623047"/>
       <use xlink:href="#DejaVuSans-30" x="127.246094"/>
      </g>
     </g>
    </g>
    <g id="xtick_2">
     <g id="line2d_2">
      <g>
       <use xlink:href="#m16df8e1739" x="210.881632" y="294.64" style="stroke: #000000; stroke-width: 0.8"/>
      </g>
     </g>
     <g id="text_2">
      <!-- 800 -->
      <g transform="translate(198.474757 311.517969) scale(0.13 -0.13)">
       <defs>
        <path id="DejaVuSans-38" d="M 2034 2216 
Q 1584 2216 1326 1975 
Q 1069 1734 1069 1313 
Q 1069 891 1326 650 
Q 1584 409 2034 409 
Q 2484 409 2743 651 
Q 3003 894 3003 1313 
Q 3003 1734 2745 1975 
Q 2488 2216 2034 2216 
z
M 1403 2484 
Q 997 2584 770 2862 
Q 544 3141 544 3541 
Q 544 4100 942 4425 
Q 1341 4750 2034 4750 
Q 2731 4750 3128 4425 
Q 3525 4100 3525 3541 
Q 3525 3141 3298 2862 
Q 3072 2584 2669 2484 
Q 3125 2378 3379 2068 
Q 3634 1759 3634 1313 
Q 3634 634 3220 271 
Q 2806 -91 2034 -91 
Q 1263 -91 848 271 
Q 434 634 434 1313 
Q 434 1759 690 2068 
Q 947 2378 1403 2484 
z
M 1172 3481 
Q 1172 3119 1398 2916 
Q 1625 2713 2034 2713 
Q 2441 2713 2670 2916 
Q 2900 3119 2900 3481 
Q 2900 3844 2670 4047 
Q 2441 4250 2034 4250 
Q 1625 4250 1398 4047 
Q 1172 3844 1172 3481 
z
" transform="scale(0.015625)"/>
       </defs>
       <use xlink:href="#DejaVuSans-38"/>
       <use xlink:href="#DejaVuSans-30" x="63.623047"/>
       <use xlink:href="#DejaVuSans-30" x="127.246094"/>
      </g>
     </g>
    </g>
    <g id="xtick_3">
     <g id="line2d_3">
      <g>
       <use xlink:href="#m16df8e1739" x="285.48624" y="294.64" style="stroke: #000000; stroke-width: 0.8"/>
      </g>
     </g>
     <g id="text_3">
      <!-- 850 -->
      <g transform="translate(273.079365 311.517969) scale(0.13 -0.13)">
       <use xlink:href="#DejaVuSans-38"/>
       <use xlink:href="#DejaVuSans-35" x="63.623047"/>
       <use xlink:href="#DejaVuSans-30" x="127.246094"/>
      </g>
     </g>
    </g>
    <g id="xtick_4">
     <g id="line2d_4">
      <g>
       <use xlink:href="#m16df8e1739" x="360.090848" y="294.64" style="stroke: #000000; stroke-width: 0.8"/>
      </g>
     </g>
     <g id="text_4">
      <!-- 900 -->
      <g transform="translate(347.683973 311.517969) scale(0.13 -0.13)">
       <defs>
        <path id="DejaVuSans-39" d="M 703 97 
L 703 672 
Q 941 559 1184 500 
Q 1428 441 1663 441 
Q 2288 441 2617 861 
Q 2947 1281 2994 2138 
Q 2813 1869 2534 1725 
Q 2256 1581 1919 1581 
Q 1219 1581 811 2004 
Q 403 2428 403 3163 
Q 403 3881 828 4315 
Q 1253 4750 1959 4750 
Q 2769 4750 3195 4129 
Q 3622 3509 3622 2328 
Q 3622 1225 3098 567 
Q 2575 -91 1691 -91 
Q 1453 -91 1209 -44 
Q 966 3 703 97 
z
M 1959 2075 
Q 2384 2075 2632 2365 
Q 2881 2656 2881 3163 
Q 2881 3666 2632 3958 
Q 2384 4250 1959 4250 
Q 1534 4250 1286 3958 
Q 1038 3666 1038 3163 
Q 1038 2656 1286 2365 
Q 1534 2075 1959 2075 
z
" transform="scale(0.015625)"/>
       </defs>
       <use xlink:href="#DejaVuSans-39"/>
       <use xlink:href="#DejaVuSans-30" x="63.623047"/>
       <use xlink:href="#DejaVuSans-30" x="127.246094"/>
      </g>
     </g>
    </g>
    <g id="xtick_5">
     <g id="line2d_5">
      <g>
       <use xlink:href="#m16df8e1739" x="434.695457" y="294.64" style="stroke: #000000; stroke-width: 0.8"/>
      </g>
     </g>
     <g id="text_5">
      <!-- 950 -->
      <g transform="translate(422.288582 311.517969) scale(0.13 -0.13)">
       <use xlink:href="#DejaVuSans-39"/>
       <use xlink:href="#DejaVuSans-35" x="63.623047"/>
       <use xlink:href="#DejaVuSans-30" x="127.246094"/>
      </g>
     </g>
    </g>
    <g id="text_6">
     <!-- Offered load [Tb/s] -->
     <g transform="translate(192.666079 328.099531) scale(0.13 -0.13)">
      <defs>
       <path id="DejaVuSans-4f" d="M 2522 4238 
Q 1834 4238 1429 3725 
Q 1025 3213 1025 2328 
Q 1025 1447 1429 934 
Q 1834 422 2522 422 
Q 3209 422 3611 934 
Q 4013 1447 4013 2328 
Q 4013 3213 3611 3725 
Q 3209 4238 2522 4238 
z
M 2522 4750 
Q 3503 4750 4090 4092 
Q 4678 3434 4678 2328 
Q 4678 1225 4090 567 
Q 3503 -91 2522 -91 
Q 1538 -91 948 565 
Q 359 1222 359 2328 
Q 359 3434 948 4092 
Q 1538 4750 2522 4750 
z
" transform="scale(0.015625)"/>
       <path id="DejaVuSans-66" d="M 2375 4863 
L 2375 4384 
L 1825 4384 
Q 1516 4384 1395 4259 
Q 1275 4134 1275 3809 
L 1275 3500 
L 2222 3500 
L 2222 3053 
L 1275 3053 
L 1275 0 
L 697 0 
L 697 3053 
L 147 3053 
L 147 3500 
L 697 3500 
L 697 3744 
Q 697 4328 969 4595 
Q 1241 4863 1831 4863 
L 2375 4863 
z
" transform="scale(0.015625)"/>
       <path id="DejaVuSans-65" d="M 3597 1894 
L 3597 1613 
L 953 1613 
Q 991 1019 1311 708 
Q 1631 397 2203 397 
Q 2534 397 2845 478 
Q 3156 559 3463 722 
L 3463 178 
Q 3153 47 2828 -22 
Q 2503 -91 2169 -91 
Q 1331 -91 842 396 
Q 353 884 353 1716 
Q 353 2575 817 3079 
Q 1281 3584 2069 3584 
Q 2775 3584 3186 3129 
Q 3597 2675 3597 1894 
z
M 3022 2063 
Q 3016 2534 2758 2815 
Q 2500 3097 2075 3097 
Q 1594 3097 1305 2825 
Q 1016 2553 972 2059 
L 3022 2063 
z
" transform="scale(0.015625)"/>
       <path id="DejaVuSans-72" d="M 2631 2963 
Q 2534 3019 2420 3045 
Q 2306 3072 2169 3072 
Q 1681 3072 1420 2755 
Q 1159 2438 1159 1844 
L 1159 0 
L 581 0 
L 581 3500 
L 1159 3500 
L 1159 2956 
Q 1341 3275 1631 3429 
Q 1922 3584 2338 3584 
Q 2397 3584 2469 3576 
Q 2541 3569 2628 3553 
L 2631 2963 
z
" transform="scale(0.015625)"/>
       <path id="DejaVuSans-64" d="M 2906 2969 
L 2906 4863 
L 3481 4863 
L 3481 0 
L 2906 0 
L 2906 525 
Q 2725 213 2448 61 
Q 2172 -91 1784 -91 
Q 1150 -91 751 415 
Q 353 922 353 1747 
Q 353 2572 751 3078 
Q 1150 3584 1784 3584 
Q 2172 3584 2448 3432 
Q 2725 3281 2906 2969 
z
M 947 1747 
Q 947 1113 1208 752 
Q 1469 391 1925 391 
Q 2381 391 2643 752 
Q 2906 1113 2906 1747 
Q 2906 2381 2643 2742 
Q 2381 3103 1925 3103 
Q 1469 3103 1208 2742 
Q 947 2381 947 1747 
z
" transform="scale(0.015625)"/>
       <path id="DejaVuSans-20" transform="scale(0.015625)"/>
       <path id="DejaVuSans-6c" d="M 603 4863 
L 1178 4863 
L 1178 0 
L 603 0 
L 603 4863 
z
" transform="scale(0.015625)"/>
       <path id="DejaVuSans-6f" d="M 1959 3097 
Q 1497 3097 1228 2736 
Q 959 2375 959 1747 
Q 959 1119 1226 758 
Q 1494 397 1959 397 
Q 2419 397 2687 759 
Q 2956 1122 2956 1747 
Q 2956 2369 2687 2733 
Q 2419 3097 1959 3097 
z
M 1959 3584 
Q 2709 3584 3137 3096 
Q 3566 2609 3566 1747 
Q 3566 888 3137 398 
Q 2709 -91 1959 -91 
Q 1206 -91 779 398 
Q 353 888 353 1747 
Q 353 2609 779 3096 
Q 1206 3584 1959 3584 
z
" transform="scale(0.015625)"/>
       <path id="DejaVuSans-61" d="M 2194 1759 
Q 1497 1759 1228 1600 
Q 959 1441 959 1056 
Q 959 750 1161 570 
Q 1363 391 1709 391 
Q 2188 391 2477 730 
Q 2766 1069 2766 1631 
L 2766 1759 
L 2194 1759 
z
M 3341 1997 
L 3341 0 
L 2766 0 
L 2766 531 
Q 2569 213 2275 61 
Q 1981 -91 1556 -91 
Q 1019 -91 701 211 
Q 384 513 384 1019 
Q 384 1609 779 1909 
Q 1175 2209 1959 2209 
L 2766 2209 
L 2766 2266 
Q 2766 2663 2505 2880 
Q 2244 3097 1772 3097 
Q 1472 3097 1187 3025 
Q 903 2953 641 2809 
L 641 3341 
Q 956 3463 1253 3523 
Q 1550 3584 1831 3584 
Q 2591 3584 2966 3190 
Q 3341 2797 3341 1997 
z
" transform="scale(0.015625)"/>
       <path id="DejaVuSans-5b" d="M 550 4863 
L 1875 4863 
L 1875 4416 
L 1125 4416 
L 1125 -397 
L 1875 -397 
L 1875 -844 
L 550 -844 
L 550 4863 
z
" transform="scale(0.015625)"/>
       <path id="DejaVuSans-54" d="M -19 4666 
L 3928 4666 
L 3928 4134 
L 2272 4134 
L 2272 0 
L 1638 0 
L 1638 4134 
L -19 4134 
L -19 4666 
z
" transform="scale(0.015625)"/>
       <path id="DejaVuSans-62" d="M 3116 1747 
Q 3116 2381 2855 2742 
Q 2594 3103 2138 3103 
Q 1681 3103 1420 2742 
Q 1159 2381 1159 1747 
Q 1159 1113 1420 752 
Q 1681 391 2138 391 
Q 2594 391 2855 752 
Q 3116 1113 3116 1747 
z
M 1159 2969 
Q 1341 3281 1617 3432 
Q 1894 3584 2278 3584 
Q 2916 3584 3314 3078 
Q 3713 2572 3713 1747 
Q 3713 922 3314 415 
Q 2916 -91 2278 -91 
Q 1894 -91 1617 61 
Q 1341 213 1159 525 
L 1159 0 
L 581 0 
L 581 4863 
L 1159 4863 
L 1159 2969 
z
" transform="scale(0.015625)"/>
       <path id="DejaVuSans-2f" d="M 1625 4666 
L 2156 4666 
L 531 -594 
L 0 -594 
L 1625 4666 
z
" transform="scale(0.015625)"/>
       <path id="DejaVuSans-73" d="M 2834 3397 
L 2834 2853 
Q 2591 2978 2328 3040 
Q 2066 3103 1784 3103 
Q 1356 3103 1142 2972 
Q 928 2841 928 2578 
Q 928 2378 1081 2264 
Q 1234 2150 1697 2047 
L 1894 2003 
Q 2506 1872 2764 1633 
Q 3022 1394 3022 966 
Q 3022 478 2636 193 
Q 2250 -91 1575 -91 
Q 1294 -91 989 -36 
Q 684 19 347 128 
L 347 722 
Q 666 556 975 473 
Q 1284 391 1588 391 
Q 1994 391 2212 530 
Q 2431 669 2431 922 
Q 2431 1156 2273 1281 
Q 2116 1406 1581 1522 
L 1381 1569 
Q 847 1681 609 1914 
Q 372 2147 372 2553 
Q 372 3047 722 3315 
Q 1072 3584 1716 3584 
Q 2034 3584 2315 3537 
Q 2597 3491 2834 3397 
z
" transform="scale(0.015625)"/>
       <path id="DejaVuSans-5d" d="M 1947 4863 
L 1947 -844 
L 622 -844 
L 622 -397 
L 1369 -397 
L 1369 4416 
L 622 4416 
L 622 4863 
L 1947 4863 
z
" transform="scale(0.015625)"/>
      </defs>
      <use xlink:href="#DejaVuSans-4f"/>
      <use xlink:href="#DejaVuSans-66" x="78.710938"/>
      <use xlink:href="#DejaVuSans-66" x="113.916016"/>
      <use xlink:href="#DejaVuSans-65" x="149.121094"/>
      <use xlink:href="#DejaVuSans-72" x="210.644531"/>
      <use xlink:href="#DejaVuSans-65" x="249.507812"/>
      <use xlink:href="#DejaVuSans-64" x="311.03125"/>
      <use xlink:href="#DejaVuSans-20" x="374.507812"/>
      <use xlink:href="#DejaVuSans-6c" x="406.294922"/>
      <use xlink:href="#DejaVuSans-6f" x="434.078125"/>
      <use xlink:href="#DejaVuSans-61" x="495.259766"/>
      <use xlink:href="#DejaVuSans-64" x="556.539062"/>
      <use xlink:href="#DejaVuSans-20" x="620.015625"/>
      <use xlink:href="#DejaVuSans-5b" x="651.802734"/>
      <use xlink:href="#DejaVuSans-54" x="690.816406"/>
      <use xlink:href="#DejaVuSans-62" x="751.900391"/>
      <use xlink:href="#DejaVuSans-2f" x="815.376953"/>
      <use xlink:href="#DejaVuSans-73" x="849.068359"/>
      <use xlink:href="#DejaVuSans-5d" x="901.167969"/>
     </g>
    </g>
   </g>
   <g id="matplotlib.axis_2">
    <g id="ytick_1">
     <g id="line2d_6">
      <defs>
       <path id="m1e2ef6b970" d="M 0 0 
L -3.5 0 
" style="stroke: #000000; stroke-width: 0.8"/>
      </defs>
      <g>
       <use xlink:href="#m1e2ef6b970" x="67.08125" y="281.719192" style="stroke: #000000; stroke-width: 0.8"/>
      </g>
     </g>
     <g id="text_7">
      <!-- 9.0 -->
      <g transform="translate(39.407188 286.658176) scale(0.13 -0.13)">
       <defs>
        <path id="DejaVuSans-2e" d="M 684 794 
L 1344 794 
L 1344 0 
L 684 0 
L 684 794 
z
" transform="scale(0.015625)"/>
       </defs>
       <use xlink:href="#DejaVuSans-39"/>
       <use xlink:href="#DejaVuSans-2e" x="63.623047"/>
       <use xlink:href="#DejaVuSans-30" x="95.410156"/>
      </g>
     </g>
    </g>
    <g id="ytick_2">
     <g id="line2d_7">
      <g>
       <use xlink:href="#m1e2ef6b970" x="67.08125" y="248.990056" style="stroke: #000000; stroke-width: 0.8"/>
      </g>
     </g>
     <g id="text_8">
      <!-- 9.5 -->
      <g transform="translate(39.407188 253.92904) scale(0.13 -0.13)">
       <use xlink:href="#DejaVuSans-39"/>
       <use xlink:href="#DejaVuSans-2e" x="63.623047"/>
       <use xlink:href="#DejaVuSans-35" x="95.410156"/>
      </g>
     </g>
    </g>
    <g id="ytick_3">
     <g id="line2d_8">
      <g>
       <use xlink:href="#m1e2ef6b970" x="67.08125" y="216.26092" style="stroke: #000000; stroke-width: 0.8"/>
      </g>
     </g>
     <g id="text_9">
      <!-- 10.0 -->
      <g transform="translate(31.135938 221.199904) scale(0.13 -0.13)">
       <defs>
        <path id="DejaVuSans-31" d="M 794 531 
L 1825 531 
L 1825 4091 
L 703 3866 
L 703 4441 
L 1819 4666 
L 2450 4666 
L 2450 531 
L 3481 531 
L 3481 0 
L 794 0 
L 794 531 
z
" transform="scale(0.015625)"/>
       </defs>
       <use xlink:href="#DejaVuSans-31"/>
       <use xlink:href="#DejaVuSans-30" x="63.623047"/>
       <use xlink:href="#DejaVuSans-2e" x="127.246094"/>
       <use xlink:href="#DejaVuSans-30" x="159.033203"/>
      </g>
     </g>
    </g>
    <g id="ytick_4">
     <g id="line2d_9">
      <g>
       <use xlink:href="#m1e2ef6b970" x="67.08125" y="183.531783" style="stroke: #000000; stroke-width: 0.8"/>
      </g>
     </g>
     <g id="text_10">
      <!-- 10.5 -->
      <g transform="translate(31.135938 188.470768) scale(0.13 -0.13)">
       <use xlink:href="#DejaVuSans-31"/>
       <use xlink:href="#DejaVuSans-30" x="63.623047"/>
       <use xlink:href="#DejaVuSans-2e" x="127.246094"/>
       <use xlink:href="#DejaVuSans-35" x="159.033203"/>
      </g>
     </g>
    </g>
    <g id="ytick_5">
     <g id="line2d_10">
      <g>
       <use xlink:href="#m1e2ef6b970" x="67.08125" y="150.802647" style="stroke: #000000; stroke-width: 0.8"/>
      </g>
     </g>
     <g id="text_11">
      <!-- 11.0 -->
      <g transform="translate(31.135938 155.741632) scale(0.13 -0.13)">
       <use xlink:href="#DejaVuSans-31"/>
       <use xlink:href="#DejaVuSans-31" x="63.623047"/>
       <use xlink:href="#DejaVuSans-2e" x="127.246094"/>
       <use xlink:href="#DejaVuSans-30" x="159.033203"/>
      </g>
     </g>
    </g>
    <g id="ytick_6">
     <g id="line2d_11">
      <g>
       <use xlink:href="#m1e2ef6b970" x="67.08125" y="118.073511" style="stroke: #000000; stroke-width: 0.8"/>
      </g>
     </g>
     <g id="text_12">
      <!-- 11.5 -->
      <g transform="translate(31.135938 123.012496) scale(0.13 -0.13)">
       <use xlink:href="#DejaVuSans-31"/>
       <use xlink:href="#DejaVuSans-31" x="63.623047"/>
       <use xlink:href="#DejaVuSans-2e" x="127.246094"/>
       <use xlink:href="#DejaVuSans-35" x="159.033203"/>
      </g>
     </g>
    </g>
    <g id="ytick_7">
     <g id="line2d_12">
      <g>
       <use xlink:href="#m1e2ef6b970" x="67.08125" y="85.344375" style="stroke: #000000; stroke-width: 0.8"/>
      </g>
     </g>
     <g id="text_13">
      <!-- 12.0 -->
      <g transform="translate(31.135938 90.283359) scale(0.13 -0.13)">
       <defs>
        <path id="DejaVuSans-32" d="M 1228 531 
L 3431 531 
L 3431 0 
L 469 0 
L 469 531 
Q 828 903 1448 1529 
Q 2069 2156 2228 2338 
Q 2531 2678 2651 2914 
Q 2772 3150 2772 3378 
Q 2772 3750 2511 3984 
Q 2250 4219 1831 4219 
Q 1534 4219 1204 4116 
Q 875 4013 500 3803 
L 500 4441 
Q 881 4594 1212 4672 
Q 1544 4750 1819 4750 
Q 2544 4750 2975 4387 
Q 3406 4025 3406 3419 
Q 3406 3131 3298 2873 
Q 3191 2616 2906 2266 
Q 2828 2175 2409 1742 
Q 1991 1309 1228 531 
z
" transform="scale(0.015625)"/>
       </defs>
       <use xlink:href="#DejaVuSans-31"/>
       <use xlink:href="#DejaVuSans-32" x="63.623047"/>
       <use xlink:href="#DejaVuSans-2e" x="127.246094"/>
       <use xlink:href="#DejaVuSans-30" x="159.033203"/>
      </g>
     </g>
    </g>
    <g id="ytick_8">
     <g id="line2d_13">
      <g>
       <use xlink:href="#m1e2ef6b970" x="67.08125" y="52.615239" style="stroke: #000000; stroke-width: 0.8"/>
      </g>
     </g>
     <g id="text_14">
      <!-- 12.5 -->
      <g transform="translate(31.135938 57.554223) scale(0.13 -0.13)">
       <use xlink:href="#DejaVuSans-31"/>
       <use xlink:href="#DejaVuSans-32" x="63.623047"/>
       <use xlink:href="#DejaVuSans-2e" x="127.246094"/>
       <use xlink:href="#DejaVuSans-35" x="159.033203"/>
      </g>
     </g>
    </g>
    <g id="ytick_9">
     <g id="line2d_14">
      <g>
       <use xlink:href="#m1e2ef6b970" x="67.08125" y="19.886103" style="stroke: #000000; stroke-width: 0.8"/>
      </g>
     </g>
     <g id="text_15">
      <!-- 13.0 -->
      <g transform="translate(31.135938 24.825087) scale(0.13 -0.13)">
       <defs>
        <path id="DejaVuSans-33" d="M 2597 2516 
Q 3050 2419 3304 2112 
Q 3559 1806 3559 1356 
Q 3559 666 3084 287 
Q 2609 -91 1734 -91 
Q 1441 -91 1130 -33 
Q 819 25 488 141 
L 488 750 
Q 750 597 1062 519 
Q 1375 441 1716 441 
Q 2309 441 2620 675 
Q 2931 909 2931 1356 
Q 2931 1769 2642 2001 
Q 2353 2234 1838 2234 
L 1294 2234 
L 1294 2753 
L 1863 2753 
Q 2328 2753 2575 2939 
Q 2822 3125 2822 3475 
Q 2822 3834 2567 4026 
Q 2313 4219 1838 4219 
Q 1578 4219 1281 4162 
Q 984 4106 628 3988 
L 628 4550 
Q 988 4650 1302 4700 
Q 1616 4750 1894 4750 
Q 2613 4750 3031 4423 
Q 3450 4097 3450 3541 
Q 3450 3153 3228 2886 
Q 3006 2619 2597 2516 
z
" transform="scale(0.015625)"/>
       </defs>
       <use xlink:href="#DejaVuSans-31"/>
       <use xlink:href="#DejaVuSans-33" x="63.623047"/>
       <use xlink:href="#DejaVuSans-2e" x="127.246094"/>
       <use xlink:href="#DejaVuSans-30" x="159.033203"/>
      </g>
     </g>
    </g>
    <g id="text_16">
     <!-- number_cuts_total -->
     <g transform="translate(24.070781 214.698594) rotate(-90) scale(0.13 -0.13)">
      <defs>
       <path id="DejaVuSans-6e" d="M 3513 2113 
L 3513 0 
L 2938 0 
L 2938 2094 
Q 2938 2591 2744 2837 
Q 2550 3084 2163 3084 
Q 1697 3084 1428 2787 
Q 1159 2491 1159 1978 
L 1159 0 
L 581 0 
L 581 3500 
L 1159 3500 
L 1159 2956 
Q 1366 3272 1645 3428 
Q 1925 3584 2291 3584 
Q 2894 3584 3203 3211 
Q 3513 2838 3513 2113 
z
" transform="scale(0.015625)"/>
       <path id="DejaVuSans-75" d="M 544 1381 
L 544 3500 
L 1119 3500 
L 1119 1403 
Q 1119 906 1312 657 
Q 1506 409 1894 409 
Q 2359 409 2629 706 
Q 2900 1003 2900 1516 
L 2900 3500 
L 3475 3500 
L 3475 0 
L 2900 0 
L 2900 538 
Q 2691 219 2414 64 
Q 2138 -91 1772 -91 
Q 1169 -91 856 284 
Q 544 659 544 1381 
z
M 1991 3584 
L 1991 3584 
z
" transform="scale(0.015625)"/>
       <path id="DejaVuSans-6d" d="M 3328 2828 
Q 3544 3216 3844 3400 
Q 4144 3584 4550 3584 
Q 5097 3584 5394 3201 
Q 5691 2819 5691 2113 
L 5691 0 
L 5113 0 
L 5113 2094 
Q 5113 2597 4934 2840 
Q 4756 3084 4391 3084 
Q 3944 3084 3684 2787 
Q 3425 2491 3425 1978 
L 3425 0 
L 2847 0 
L 2847 2094 
Q 2847 2600 2669 2842 
Q 2491 3084 2119 3084 
Q 1678 3084 1418 2786 
Q 1159 2488 1159 1978 
L 1159 0 
L 581 0 
L 581 3500 
L 1159 3500 
L 1159 2956 
Q 1356 3278 1631 3431 
Q 1906 3584 2284 3584 
Q 2666 3584 2933 3390 
Q 3200 3197 3328 2828 
z
" transform="scale(0.015625)"/>
       <path id="DejaVuSans-5f" d="M 3263 -1063 
L 3263 -1509 
L -63 -1509 
L -63 -1063 
L 3263 -1063 
z
" transform="scale(0.015625)"/>
       <path id="DejaVuSans-63" d="M 3122 3366 
L 3122 2828 
Q 2878 2963 2633 3030 
Q 2388 3097 2138 3097 
Q 1578 3097 1268 2742 
Q 959 2388 959 1747 
Q 959 1106 1268 751 
Q 1578 397 2138 397 
Q 2388 397 2633 464 
Q 2878 531 3122 666 
L 3122 134 
Q 2881 22 2623 -34 
Q 2366 -91 2075 -91 
Q 1284 -91 818 406 
Q 353 903 353 1747 
Q 353 2603 823 3093 
Q 1294 3584 2113 3584 
Q 2378 3584 2631 3529 
Q 2884 3475 3122 3366 
z
" transform="scale(0.015625)"/>
       <path id="DejaVuSans-74" d="M 1172 4494 
L 1172 3500 
L 2356 3500 
L 2356 3053 
L 1172 3053 
L 1172 1153 
Q 1172 725 1289 603 
Q 1406 481 1766 481 
L 2356 481 
L 2356 0 
L 1766 0 
Q 1100 0 847 248 
Q 594 497 594 1153 
L 594 3053 
L 172 3053 
L 172 3500 
L 594 3500 
L 594 4494 
L 1172 4494 
z
" transform="scale(0.015625)"/>
      </defs>
      <use xlink:href="#DejaVuSans-6e"/>
      <use xlink:href="#DejaVuSans-75" x="63.378906"/>
      <use xlink:href="#DejaVuSans-6d" x="126.757812"/>
      <use xlink:href="#DejaVuSans-62" x="224.169922"/>
      <use xlink:href="#DejaVuSans-65" x="287.646484"/>
      <use xlink:href="#DejaVuSans-72" x="349.169922"/>
      <use xlink:href="#DejaVuSans-5f" x="390.283203"/>
      <use xlink:href="#DejaVuSans-63" x="440.283203"/>
      <use xlink:href="#DejaVuSans-75" x="495.263672"/>
      <use xlink:href="#DejaVuSans-74" x="558.642578"/>
      <use xlink:href="#DejaVuSans-73" x="597.851562"/>
      <use xlink:href="#DejaVuSans-5f" x="649.951172"/>
      <use xlink:href="#DejaVuSans-74" x="699.951172"/>
      <use xlink:href="#DejaVuSans-6f" x="739.160156"/>
      <use xlink:href="#DejaVuSans-74" x="800.341797"/>
      <use xlink:href="#DejaVuSans-61" x="839.550781"/>
      <use xlink:href="#DejaVuSans-6c" x="900.830078"/>
     </g>
    </g>
   </g>
   <g id="line2d_15">
    <path d="M 84.053798 117.763116 
L 132.546794 103.139569 
L 181.039789 87.875366 
L 229.532784 74.754176 
L 278.02578 62.384569 
L 326.518775 51.909364 
L 375.01177 43.238048 
L 423.504765 35.511794 
" clip-path="url(#p1268847240)" style="fill: none; stroke: #ff0000; stroke-width: 1.5; stroke-linecap: square"/>
    <defs>
     <path id="m3d29dcfb96" d="M -1.75 3.5 
L 0 1.75 
L 1.75 3.5 
L 3.5 1.75 
L 1.75 0 
L 3.5 -1.75 
L 1.75 -3.5 
L 0 -1.75 
L -1.75 -3.5 
L -3.5 -1.75 
L -1.75 0 
L -3.5 1.75 
z
" style="stroke: #ffffff; stroke-linejoin: miter"/>
    </defs>
    <g clip-path="url(#p1268847240)">
     <use xlink:href="#m3d29dcfb96" x="84.053798" y="117.763116" style="fill: #ff0000; stroke: #ffffff; stroke-linejoin: miter"/>
     <use xlink:href="#m3d29dcfb96" x="132.546794" y="103.139569" style="fill: #ff0000; stroke: #ffffff; stroke-linejoin: miter"/>
     <use xlink:href="#m3d29dcfb96" x="181.039789" y="87.875366" style="fill: #ff0000; stroke: #ffffff; stroke-linejoin: miter"/>
     <use xlink:href="#m3d29dcfb96" x="229.532784" y="74.754176" style="fill: #ff0000; stroke: #ffffff; stroke-linejoin: miter"/>
     <use xlink:href="#m3d29dcfb96" x="278.02578" y="62.384569" style="fill: #ff0000; stroke: #ffffff; stroke-linejoin: miter"/>
     <use xlink:href="#m3d29dcfb96" x="326.518775" y="51.909364" style="fill: #ff0000; stroke: #ffffff; stroke-linejoin: miter"/>
     <use xlink:href="#m3d29dcfb96" x="375.01177" y="43.238048" style="fill: #ff0000; stroke: #ffffff; stroke-linejoin: miter"/>
     <use xlink:href="#m3d29dcfb96" x="423.504765" y="35.511794" style="fill: #ff0000; stroke: #ffffff; stroke-linejoin: miter"/>
    </g>
   </g>
   <g id="line2d_16">
    <path d="M 84.053798 235.380084 
L 132.546794 223.276019 
L 181.039789 211.940185 
L 229.532784 203.491916 
L 278.02578 194.17757 
L 326.518775 185.360463 
L 375.01177 177.75939 
L 423.504765 168.708269 
" clip-path="url(#p1268847240)" style="fill: none; stroke: #008000; stroke-width: 1.5; stroke-linecap: square"/>
    <defs>
     <path id="m96d0f2f588" d="M -1.166667 3.5 
L 1.166667 3.5 
L 1.166667 1.166667 
L 3.5 1.166667 
L 3.5 -1.166667 
L 1.166667 -1.166667 
L 1.166667 -3.5 
L -1.166667 -3.5 
L -1.166667 -1.166667 
L -3.5 -1.166667 
L -3.5 1.166667 
L -1.166667 1.166667 
z
" style="stroke: #ffffff; stroke-linejoin: miter"/>
    </defs>
    <g clip-path="url(#p1268847240)">
     <use xlink:href="#m96d0f2f588" x="84.053798" y="235.380084" style="fill: #008000; stroke: #ffffff; stroke-linejoin: miter"/>
     <use xlink:href="#m96d0f2f588" x="132.546794" y="223.276019" style="fill: #008000; stroke: #ffffff; stroke-linejoin: miter"/>
     <use xlink:href="#m96d0f2f588" x="181.039789" y="211.940185" style="fill: #008000; stroke: #ffffff; stroke-linejoin: miter"/>
     <use xlink:href="#m96d0f2f588" x="229.532784" y="203.491916" style="fill: #008000; stroke: #ffffff; stroke-linejoin: miter"/>
     <use xlink:href="#m96d0f2f588" x="278.02578" y="194.17757" style="fill: #008000; stroke: #ffffff; stroke-linejoin: miter"/>
     <use xlink:href="#m96d0f2f588" x="326.518775" y="185.360463" style="fill: #008000; stroke: #ffffff; stroke-linejoin: miter"/>
     <use xlink:href="#m96d0f2f588" x="375.01177" y="177.75939" style="fill: #008000; stroke: #ffffff; stroke-linejoin: miter"/>
     <use xlink:href="#m96d0f2f588" x="423.504765" y="168.708269" style="fill: #008000; stroke: #ffffff; stroke-linejoin: miter"/>
    </g>
   </g>
   <g id="line2d_17">
    <path d="M 84.053798 280.272684 
L 132.546794 263.564828 
L 181.039789 249.82779 
L 229.532784 240.546677 
L 278.02578 228.577238 
L 326.518775 221.506336 
L 375.01177 213.539684 
L 423.504765 206.186402 
" clip-path="url(#p1268847240)" style="fill: none; stroke: #0000ff; stroke-width: 1.5; stroke-linecap: square"/>
    <defs>
     <path id="mdfb4443c51" d="M 0 3.5 
C 0.928211 3.5 1.81853 3.131218 2.474874 2.474874 
C 3.131218 1.81853 3.5 0.928211 3.5 0 
C 3.5 -0.928211 3.131218 -1.81853 2.474874 -2.474874 
C 1.81853 -3.131218 0.928211 -3.5 0 -3.5 
C -0.928211 -3.5 -1.81853 -3.131218 -2.474874 -2.474874 
C -3.131218 -1.81853 -3.5 -0.928211 -3.5 0 
C -3.5 0.928211 -3.131218 1.81853 -2.474874 2.474874 
C -1.81853 3.131218 -0.928211 3.5 0 3.5 
z
" style="stroke: #ffffff"/>
    </defs>
    <g clip-path="url(#p1268847240)">
     <use xlink:href="#mdfb4443c51" x="84.053798" y="280.272684" style="fill: #0000ff; stroke: #ffffff"/>
     <use xlink:href="#mdfb4443c51" x="132.546794" y="263.564828" style="fill: #0000ff; stroke: #ffffff"/>
     <use xlink:href="#mdfb4443c51" x="181.039789" y="249.82779" style="fill: #0000ff; stroke: #ffffff"/>
     <use xlink:href="#mdfb4443c51" x="229.532784" y="240.546677" style="fill: #0000ff; stroke: #ffffff"/>
     <use xlink:href="#mdfb4443c51" x="278.02578" y="228.577238" style="fill: #0000ff; stroke: #ffffff"/>
     <use xlink:href="#mdfb4443c51" x="326.518775" y="221.506336" style="fill: #0000ff; stroke: #ffffff"/>
     <use xlink:href="#mdfb4443c51" x="375.01177" y="213.539684" style="fill: #0000ff; stroke: #ffffff"/>
     <use xlink:href="#mdfb4443c51" x="423.504765" y="206.186402" style="fill: #0000ff; stroke: #ffffff"/>
    </g>
   </g>
   <g id="line2d_18">
    <path d="M 84.053798 281.885455 
L 132.546794 272.938994 
L 181.039789 265.148369 
L 229.532784 257.838179 
L 278.02578 250.691551 
L 326.518775 242.623254 
L 375.01177 235.675027 
L 423.504765 229.24999 
" clip-path="url(#p1268847240)" style="fill: none; stroke: #ffa500; stroke-width: 1.5; stroke-linecap: square"/>
    <defs>
     <path id="m05a0cca270" d="M 0 3.5 
C 0.928211 3.5 1.81853 3.131218 2.474874 2.474874 
C 3.131218 1.81853 3.5 0.928211 3.5 0 
C 3.5 -0.928211 3.131218 -1.81853 2.474874 -2.474874 
C 1.81853 -3.131218 0.928211 -3.5 0 -3.5 
C -0.928211 -3.5 -1.81853 -3.131218 -2.474874 -2.474874 
C -3.131218 -1.81853 -3.5 -0.928211 -3.5 0 
C -3.5 0.928211 -3.131218 1.81853 -2.474874 2.474874 
C -1.81853 3.131218 -0.928211 3.5 0 3.5 
z
" style="stroke: #ffffff"/>
    </defs>
    <g clip-path="url(#p1268847240)">
     <use xlink:href="#m05a0cca270" x="84.053798" y="281.885455" style="fill: #ffa500; stroke: #ffffff"/>
     <use xlink:href="#m05a0cca270" x="132.546794" y="272.938994" style="fill: #ffa500; stroke: #ffffff"/>
     <use xlink:href="#m05a0cca270" x="181.039789" y="265.148369" style="fill: #ffa500; stroke: #ffffff"/>
     <use xlink:href="#m05a0cca270" x="229.532784" y="257.838179" style="fill: #ffa500; stroke: #ffffff"/>
     <use xlink:href="#m05a0cca270" x="278.02578" y="250.691551" style="fill: #ffa500; stroke: #ffffff"/>
     <use xlink:href="#m05a0cca270" x="326.518775" y="242.623254" style="fill: #ffa500; stroke: #ffffff"/>
     <use xlink:href="#m05a0cca270" x="375.01177" y="235.675027" style="fill: #ffa500; stroke: #ffffff"/>
     <use xlink:href="#m05a0cca270" x="423.504765" y="229.24999" style="fill: #ffa500; stroke: #ffffff"/>
    </g>
   </g>
   <g id="line2d_19">
    <path d="M 84.053798 256.765473 
L 132.546794 246.672809 
L 181.039789 236.960193 
L 229.532784 227.841245 
L 278.02578 217.621328 
L 326.518775 208.483549 
L 375.01177 199.614661 
L 423.504765 192.495317 
" clip-path="url(#p1268847240)" style="fill: none; stroke: #000000; stroke-width: 1.5; stroke-linecap: square"/>
    <defs>
     <path id="ma3f70ff5fa" d="M 0 3.5 
C 0.928211 3.5 1.81853 3.131218 2.474874 2.474874 
C 3.131218 1.81853 3.5 0.928211 3.5 0 
C 3.5 -0.928211 3.131218 -1.81853 2.474874 -2.474874 
C 1.81853 -3.131218 0.928211 -3.5 0 -3.5 
C -0.928211 -3.5 -1.81853 -3.131218 -2.474874 -2.474874 
C -3.131218 -1.81853 -3.5 -0.928211 -3.5 0 
C -3.5 0.928211 -3.131218 1.81853 -2.474874 2.474874 
C -1.81853 3.131218 -0.928211 3.5 0 3.5 
z
" style="stroke: #ffffff"/>
    </defs>
    <g clip-path="url(#p1268847240)">
     <use xlink:href="#ma3f70ff5fa" x="84.053798" y="256.765473" style="stroke: #ffffff"/>
     <use xlink:href="#ma3f70ff5fa" x="132.546794" y="246.672809" style="stroke: #ffffff"/>
     <use xlink:href="#ma3f70ff5fa" x="181.039789" y="236.960193" style="stroke: #ffffff"/>
     <use xlink:href="#ma3f70ff5fa" x="229.532784" y="227.841245" style="stroke: #ffffff"/>
     <use xlink:href="#ma3f70ff5fa" x="278.02578" y="217.621328" style="stroke: #ffffff"/>
     <use xlink:href="#ma3f70ff5fa" x="326.518775" y="208.483549" style="stroke: #ffffff"/>
     <use xlink:href="#ma3f70ff5fa" x="375.01177" y="199.614661" style="stroke: #ffffff"/>
     <use xlink:href="#ma3f70ff5fa" x="423.504765" y="192.495317" style="stroke: #ffffff"/>
    </g>
   </g>
   <g id="line2d_20">
    <path d="M 84.053798 108.249636 
L 132.546794 89.527431 
L 181.039789 74.166511 
L 229.532784 62.491761 
L 278.02578 51.433424 
L 326.518775 42.307588 
L 375.01177 34.236999 
L 423.504765 26.794545 
" clip-path="url(#p1268847240)" style="fill: none; stroke: #800080; stroke-width: 1.5; stroke-linecap: square"/>
    <defs>
     <path id="mde15a8b299" d="M 0 -3.5 
L -3.328698 -1.081559 
L -2.057248 2.831559 
L 2.057248 2.831559 
L 3.328698 -1.081559 
z
" style="stroke: #ffffff; stroke-linejoin: miter"/>
    </defs>
    <g clip-path="url(#p1268847240)">
     <use xlink:href="#mde15a8b299" x="84.053798" y="108.249636" style="fill: #800080; stroke: #ffffff; stroke-linejoin: miter"/>
     <use xlink:href="#mde15a8b299" x="132.546794" y="89.527431" style="fill: #800080; stroke: #ffffff; stroke-linejoin: miter"/>
     <use xlink:href="#mde15a8b299" x="181.039789" y="74.166511" style="fill: #800080; stroke: #ffffff; stroke-linejoin: miter"/>
     <use xlink:href="#mde15a8b299" x="229.532784" y="62.491761" style="fill: #800080; stroke: #ffffff; stroke-linejoin: miter"/>
     <use xlink:href="#mde15a8b299" x="278.02578" y="51.433424" style="fill: #800080; stroke: #ffffff; stroke-linejoin: miter"/>
     <use xlink:href="#mde15a8b299" x="326.518775" y="42.307588" style="fill: #800080; stroke: #ffffff; stroke-linejoin: miter"/>
     <use xlink:href="#mde15a8b299" x="375.01177" y="34.236999" style="fill: #800080; stroke: #ffffff; stroke-linejoin: miter"/>
     <use xlink:href="#mde15a8b299" x="423.504765" y="26.794545" style="fill: #800080; stroke: #ffffff; stroke-linejoin: miter"/>
    </g>
   </g>
   <g id="patch_3">
    <path d="M 67.08125 294.64 
L 67.08125 14.04 
" style="fill: none; stroke: #000000; stroke-width: 0.8; stroke-linejoin: miter; stroke-linecap: square"/>
   </g>
   <g id="patch_4">
    <path d="M 440.477314 294.64 
L 440.477314 14.04 
" style="fill: none; stroke: #000000; stroke-width: 0.8; stroke-linejoin: miter; stroke-linecap: square"/>
   </g>
   <g id="patch_5">
    <path d="M 67.08125 294.64 
L 440.477314 294.64 
" style="fill: none; stroke: #000000; stroke-width: 0.8; stroke-linejoin: miter; stroke-linecap: square"/>
   </g>
   <g id="patch_6">
    <path d="M 67.08125 14.04 
L 440.477314 14.04 
" style="fill: none; stroke: #000000; stroke-width: 0.8; stroke-linejoin: miter; stroke-linecap: square"/>
   </g>
   <g id="legend_1">
    <g id="patch_7">
     <path d="M 75.48125 208.98125 
L 217.150625 208.98125 
Q 219.550625 208.98125 219.550625 206.58125 
L 219.550625 102.09875 
Q 219.550625 99.69875 217.150625 99.69875 
L 75.48125 99.69875 
Q 73.08125 99.69875 73.08125 102.09875 
L 73.08125 206.58125 
Q 73.08125 208.98125 75.48125 208.98125 
z
" style="fill: #ffffff; opacity: 0.8; stroke: #cccccc; stroke-linejoin: miter"/>
    </g>
    <g id="line2d_21">
     <path d="M 77.88125 109.416875 
L 89.88125 109.416875 
L 101.88125 109.416875 
" style="fill: none; stroke: #ff0000; stroke-width: 1.5; stroke-linecap: square"/>
     <g>
      <use xlink:href="#m3d29dcfb96" x="89.88125" y="109.416875" style="fill: #ff0000; stroke: #ffffff; stroke-linejoin: miter"/>
     </g>
    </g>
    <g id="text_17">
     <!-- BM-SP -->
     <g transform="translate(111.48125 113.616875) scale(0.12 -0.12)">
      <defs>
       <path id="DejaVuSans-42" d="M 1259 2228 
L 1259 519 
L 2272 519 
Q 2781 519 3026 730 
Q 3272 941 3272 1375 
Q 3272 1813 3026 2020 
Q 2781 2228 2272 2228 
L 1259 2228 
z
M 1259 4147 
L 1259 2741 
L 2194 2741 
Q 2656 2741 2882 2914 
Q 3109 3088 3109 3444 
Q 3109 3797 2882 3972 
Q 2656 4147 2194 4147 
L 1259 4147 
z
M 628 4666 
L 2241 4666 
Q 2963 4666 3353 4366 
Q 3744 4066 3744 3513 
Q 3744 3084 3544 2831 
Q 3344 2578 2956 2516 
Q 3422 2416 3680 2098 
Q 3938 1781 3938 1306 
Q 3938 681 3513 340 
Q 3088 0 2303 0 
L 628 0 
L 628 4666 
z
" transform="scale(0.015625)"/>
       <path id="DejaVuSans-4d" d="M 628 4666 
L 1569 4666 
L 2759 1491 
L 3956 4666 
L 4897 4666 
L 4897 0 
L 4281 0 
L 4281 4097 
L 3078 897 
L 2444 897 
L 1241 4097 
L 1241 0 
L 628 0 
L 628 4666 
z
" transform="scale(0.015625)"/>
       <path id="DejaVuSans-2d" d="M 313 2009 
L 1997 2009 
L 1997 1497 
L 313 1497 
L 313 2009 
z
" transform="scale(0.015625)"/>
       <path id="DejaVuSans-53" d="M 3425 4513 
L 3425 3897 
Q 3066 4069 2747 4153 
Q 2428 4238 2131 4238 
Q 1616 4238 1336 4038 
Q 1056 3838 1056 3469 
Q 1056 3159 1242 3001 
Q 1428 2844 1947 2747 
L 2328 2669 
Q 3034 2534 3370 2195 
Q 3706 1856 3706 1288 
Q 3706 609 3251 259 
Q 2797 -91 1919 -91 
Q 1588 -91 1214 -16 
Q 841 59 441 206 
L 441 856 
Q 825 641 1194 531 
Q 1563 422 1919 422 
Q 2459 422 2753 634 
Q 3047 847 3047 1241 
Q 3047 1584 2836 1778 
Q 2625 1972 2144 2069 
L 1759 2144 
Q 1053 2284 737 2584 
Q 422 2884 422 3419 
Q 422 4038 858 4394 
Q 1294 4750 2059 4750 
Q 2388 4750 2728 4690 
Q 3069 4631 3425 4513 
z
" transform="scale(0.015625)"/>
       <path id="DejaVuSans-50" d="M 1259 4147 
L 1259 2394 
L 2053 2394 
Q 2494 2394 2734 2622 
Q 2975 2850 2975 3272 
Q 2975 3691 2734 3919 
Q 2494 4147 2053 4147 
L 1259 4147 
z
M 628 4666 
L 2053 4666 
Q 2838 4666 3239 4311 
Q 3641 3956 3641 3272 
Q 3641 2581 3239 2228 
Q 2838 1875 2053 1875 
L 1259 1875 
L 1259 0 
L 628 0 
L 628 4666 
z
" transform="scale(0.015625)"/>
      </defs>
      <use xlink:href="#DejaVuSans-42"/>
      <use xlink:href="#DejaVuSans-4d" x="68.603516"/>
      <use xlink:href="#DejaVuSans-2d" x="154.882812"/>
      <use xlink:href="#DejaVuSans-53" x="190.966797"/>
      <use xlink:href="#DejaVuSans-50" x="254.443359"/>
     </g>
    </g>
    <g id="line2d_22">
     <path d="M 77.88125 127.030625 
L 89.88125 127.030625 
L 101.88125 127.030625 
" style="fill: none; stroke: #008000; stroke-width: 1.5; stroke-linecap: square"/>
     <g>
      <use xlink:href="#m96d0f2f588" x="89.88125" y="127.030625" style="fill: #008000; stroke: #ffffff; stroke-linejoin: miter"/>
     </g>
    </g>
    <g id="text_18">
     <!-- SFQA-Cut -->
     <g transform="translate(111.48125 131.230625) scale(0.12 -0.12)">
      <defs>
       <path id="DejaVuSans-46" d="M 628 4666 
L 3309 4666 
L 3309 4134 
L 1259 4134 
L 1259 2759 
L 3109 2759 
L 3109 2228 
L 1259 2228 
L 1259 0 
L 628 0 
L 628 4666 
z
" transform="scale(0.015625)"/>
       <path id="DejaVuSans-51" d="M 2522 4238 
Q 1834 4238 1429 3725 
Q 1025 3213 1025 2328 
Q 1025 1447 1429 934 
Q 1834 422 2522 422 
Q 3209 422 3611 934 
Q 4013 1447 4013 2328 
Q 4013 3213 3611 3725 
Q 3209 4238 2522 4238 
z
M 3406 84 
L 4238 -825 
L 3475 -825 
L 2784 -78 
Q 2681 -84 2626 -87 
Q 2572 -91 2522 -91 
Q 1538 -91 948 567 
Q 359 1225 359 2328 
Q 359 3434 948 4092 
Q 1538 4750 2522 4750 
Q 3503 4750 4090 4092 
Q 4678 3434 4678 2328 
Q 4678 1516 4351 937 
Q 4025 359 3406 84 
z
" transform="scale(0.015625)"/>
       <path id="DejaVuSans-41" d="M 2188 4044 
L 1331 1722 
L 3047 1722 
L 2188 4044 
z
M 1831 4666 
L 2547 4666 
L 4325 0 
L 3669 0 
L 3244 1197 
L 1141 1197 
L 716 0 
L 50 0 
L 1831 4666 
z
" transform="scale(0.015625)"/>
       <path id="DejaVuSans-43" d="M 4122 4306 
L 4122 3641 
Q 3803 3938 3442 4084 
Q 3081 4231 2675 4231 
Q 1875 4231 1450 3742 
Q 1025 3253 1025 2328 
Q 1025 1406 1450 917 
Q 1875 428 2675 428 
Q 3081 428 3442 575 
Q 3803 722 4122 1019 
L 4122 359 
Q 3791 134 3420 21 
Q 3050 -91 2638 -91 
Q 1578 -91 968 557 
Q 359 1206 359 2328 
Q 359 3453 968 4101 
Q 1578 4750 2638 4750 
Q 3056 4750 3426 4639 
Q 3797 4528 4122 4306 
z
" transform="scale(0.015625)"/>
      </defs>
      <use xlink:href="#DejaVuSans-53"/>
      <use xlink:href="#DejaVuSans-46" x="63.476562"/>
      <use xlink:href="#DejaVuSans-51" x="120.996094"/>
      <use xlink:href="#DejaVuSans-41" x="199.707031"/>
      <use xlink:href="#DejaVuSans-2d" x="265.865234"/>
      <use xlink:href="#DejaVuSans-43" x="301.949219"/>
      <use xlink:href="#DejaVuSans-75" x="371.773438"/>
      <use xlink:href="#DejaVuSans-74" x="435.152344"/>
     </g>
    </g>
    <g id="line2d_23">
     <path d="M 77.88125 144.644375 
L 89.88125 144.644375 
L 101.88125 144.644375 
" style="fill: none; stroke: #0000ff; stroke-width: 1.5; stroke-linecap: square"/>
     <g>
      <use xlink:href="#mdfb4443c51" x="89.88125" y="144.644375" style="fill: #0000ff; stroke: #ffffff"/>
     </g>
    </g>
    <g id="text_19">
     <!-- SFQA-Cut-defrag -->
     <g transform="translate(111.48125 148.844375) scale(0.12 -0.12)">
      <defs>
       <path id="DejaVuSans-67" d="M 2906 1791 
Q 2906 2416 2648 2759 
Q 2391 3103 1925 3103 
Q 1463 3103 1205 2759 
Q 947 2416 947 1791 
Q 947 1169 1205 825 
Q 1463 481 1925 481 
Q 2391 481 2648 825 
Q 2906 1169 2906 1791 
z
M 3481 434 
Q 3481 -459 3084 -895 
Q 2688 -1331 1869 -1331 
Q 1566 -1331 1297 -1286 
Q 1028 -1241 775 -1147 
L 775 -588 
Q 1028 -725 1275 -790 
Q 1522 -856 1778 -856 
Q 2344 -856 2625 -561 
Q 2906 -266 2906 331 
L 2906 616 
Q 2728 306 2450 153 
Q 2172 0 1784 0 
Q 1141 0 747 490 
Q 353 981 353 1791 
Q 353 2603 747 3093 
Q 1141 3584 1784 3584 
Q 2172 3584 2450 3431 
Q 2728 3278 2906 2969 
L 2906 3500 
L 3481 3500 
L 3481 434 
z
" transform="scale(0.015625)"/>
      </defs>
      <use xlink:href="#DejaVuSans-53"/>
      <use xlink:href="#DejaVuSans-46" x="63.476562"/>
      <use xlink:href="#DejaVuSans-51" x="120.996094"/>
      <use xlink:href="#DejaVuSans-41" x="199.707031"/>
      <use xlink:href="#DejaVuSans-2d" x="265.865234"/>
      <use xlink:href="#DejaVuSans-43" x="301.949219"/>
      <use xlink:href="#DejaVuSans-75" x="371.773438"/>
      <use xlink:href="#DejaVuSans-74" x="435.152344"/>
      <use xlink:href="#DejaVuSans-2d" x="474.361328"/>
      <use xlink:href="#DejaVuSans-64" x="510.445312"/>
      <use xlink:href="#DejaVuSans-65" x="573.921875"/>
      <use xlink:href="#DejaVuSans-66" x="635.445312"/>
      <use xlink:href="#DejaVuSans-72" x="670.650391"/>
      <use xlink:href="#DejaVuSans-61" x="711.763672"/>
      <use xlink:href="#DejaVuSans-67" x="773.042969"/>
     </g>
    </g>
    <g id="line2d_24">
     <path d="M 77.88125 162.258125 
L 89.88125 162.258125 
L 101.88125 162.258125 
" style="fill: none; stroke: #ffa500; stroke-width: 1.5; stroke-linecap: square"/>
     <g>
      <use xlink:href="#m05a0cca270" x="89.88125" y="162.258125" style="fill: #ffa500; stroke: #ffffff"/>
     </g>
    </g>
    <g id="text_20">
     <!-- SFQA-RSS-defrag -->
     <g transform="translate(111.48125 166.458125) scale(0.12 -0.12)">
      <defs>
       <path id="DejaVuSans-52" d="M 2841 2188 
Q 3044 2119 3236 1894 
Q 3428 1669 3622 1275 
L 4263 0 
L 3584 0 
L 2988 1197 
Q 2756 1666 2539 1819 
Q 2322 1972 1947 1972 
L 1259 1972 
L 1259 0 
L 628 0 
L 628 4666 
L 2053 4666 
Q 2853 4666 3247 4331 
Q 3641 3997 3641 3322 
Q 3641 2881 3436 2590 
Q 3231 2300 2841 2188 
z
M 1259 4147 
L 1259 2491 
L 2053 2491 
Q 2509 2491 2742 2702 
Q 2975 2913 2975 3322 
Q 2975 3731 2742 3939 
Q 2509 4147 2053 4147 
L 1259 4147 
z
" transform="scale(0.015625)"/>
      </defs>
      <use xlink:href="#DejaVuSans-53"/>
      <use xlink:href="#DejaVuSans-46" x="63.476562"/>
      <use xlink:href="#DejaVuSans-51" x="120.996094"/>
      <use xlink:href="#DejaVuSans-41" x="199.707031"/>
      <use xlink:href="#DejaVuSans-2d" x="265.865234"/>
      <use xlink:href="#DejaVuSans-52" x="301.949219"/>
      <use xlink:href="#DejaVuSans-53" x="371.431641"/>
      <use xlink:href="#DejaVuSans-53" x="434.908203"/>
      <use xlink:href="#DejaVuSans-2d" x="498.384766"/>
      <use xlink:href="#DejaVuSans-64" x="534.46875"/>
      <use xlink:href="#DejaVuSans-65" x="597.945312"/>
      <use xlink:href="#DejaVuSans-66" x="659.46875"/>
      <use xlink:href="#DejaVuSans-72" x="694.673828"/>
      <use xlink:href="#DejaVuSans-61" x="735.787109"/>
      <use xlink:href="#DejaVuSans-67" x="797.066406"/>
     </g>
    </g>
    <g id="line2d_25">
     <path d="M 77.88125 179.871875 
L 89.88125 179.871875 
L 101.88125 179.871875 
" style="fill: none; stroke: #000000; stroke-width: 1.5; stroke-linecap: square"/>
     <g>
      <use xlink:href="#ma3f70ff5fa" x="89.88125" y="179.871875" style="stroke: #ffffff"/>
     </g>
    </g>
    <g id="text_21">
     <!-- SFQA-RSS -->
     <g transform="translate(111.48125 184.071875) scale(0.12 -0.12)">
      <use xlink:href="#DejaVuSans-53"/>
      <use xlink:href="#DejaVuSans-46" x="63.476562"/>
      <use xlink:href="#DejaVuSans-51" x="120.996094"/>
      <use xlink:href="#DejaVuSans-41" x="199.707031"/>
      <use xlink:href="#DejaVuSans-2d" x="265.865234"/>
      <use xlink:href="#DejaVuSans-52" x="301.949219"/>
      <use xlink:href="#DejaVuSans-53" x="371.431641"/>
      <use xlink:href="#DejaVuSans-53" x="434.908203"/>
     </g>
    </g>
    <g id="line2d_26">
     <path d="M 77.88125 197.485625 
L 89.88125 197.485625 
L 101.88125 197.485625 
" style="fill: none; stroke: #800080; stroke-width: 1.5; stroke-linecap: square"/>
     <g>
      <use xlink:href="#mde15a8b299" x="89.88125" y="197.485625" style="fill: #800080; stroke: #ffffff; stroke-linejoin: miter"/>
     </g>
    </g>
    <g id="text_22">
     <!-- SP-BM -->
     <g transform="translate(111.48125 201.685625) scale(0.12 -0.12)">
      <use xlink:href="#DejaVuSans-53"/>
      <use xlink:href="#DejaVuSans-50" x="63.476562"/>
      <use xlink:href="#DejaVuSans-2d" x="121.529297"/>
      <use xlink:href="#DejaVuSans-42" x="153.988281"/>
      <use xlink:href="#DejaVuSans-4d" x="222.591797"/>
     </g>
    </g>
   </g>
  </g>
 </g>
 <defs>
  <clipPath id="p1268847240">
   <rect x="67.08125" y="14.04" width="373.396064" height="280.6"/>
  </clipPath>
 </defs>
</svg>
