<?xml version="1.0" encoding="utf-8" standalone="no"?>
<!DOCTYPE svg PUBLIC "-//W3C//DTD SVG 1.1//EN"
  "http://www.w3.org/Graphics/SVG/1.1/DTD/svg11.dtd">
<svg xmlns:xlink="http://www.w3.org/1999/xlink" width="460.8pt" height="345.6pt" viewBox="0 0 460.8 345.6" xmlns="http://www.w3.org/2000/svg" version="1.1">
 <metadata>
  <rdf:RDF xmlns:dc="http://purl.org/dc/elements/1.1/" xmlns:cc="http://creativecommons.org/ns#" xmlns:rdf="http://www.w3.org/1999/02/22-rdf-syntax-ns#">
   <cc:Work>
    <dc:type rdf:resource="http://purl.org/dc/dcmitype/StillImage"/>
    <dc:date>2025-04-16T19:47:59.262424</dc:date>
    <dc:format>image/svg+xml</dc:format>
    <dc:creator>
     <cc:Agent>
      <dc:title>Matplotlib v3.9.2, https://matplotlib.org/</dc:title>
     </cc:Agent>
    </dc:creator>
   </cc:Work>
  </rdf:RDF>
 </metadata>
 <defs>
  <style type="text/css">*{stroke-linejoin: round; stroke-linecap: butt}</style>
 </defs>
 <g id="figure_1">
  <g id="patch_1">
   <path d="M 0 345.6 
L 460.8 345.6 
L 460.8 0 
L 0 0 
z
" style="fill: #ffffff"/>
  </g>
  <g id="axes_1">
   <g id="patch_2">
    <path d="M 80.17213 288.52 
L 436.426353 288.52 
L 436.426353 17.28 
L 80.17213 17.28 
z
" style="fill: #ffffff"/>
   </g>
   <g id="matplotlib.axis_1">
    <g id="xtick_1">
     <g id="line2d_1">
      <defs>
       <path id="m950395c215" d="M 0 0 
L 0 3.5 
" style="stroke: #000000; stroke-width: 0.8"/>
      </defs>
      <g>
       <use xlink:href="#m950395c215" x="117.126239" y="288.52" style="stroke: #000000; stroke-width: 0.8"/>
      </g>
     </g>
     <g id="text_1">
      <!-- 400 -->
      <g transform="translate(101.856239 307.6775) scale(0.16 -0.16)">
       <defs>
        <path id="DejaVuSans-34" d="M 2419 4116 
L 825 1625 
L 2419 1625 
L 2419 4116 
z
M 2253 4666 
L 3047 4666 
L 3047 1625 
L 3713 1625 
L 3713 1100 
L 3047 1100 
L 3047 0 
L 2419 0 
L 2419 1100 
L 313 1100 
L 313 1709 
L 2253 4666 
z
" transform="scale(0.015625)"/>
        <path id="DejaVuSans-30" d="M 2034 4250 
Q 1547 4250 1301 3770 
Q 1056 3291 1056 2328 
Q 1056 1369 1301 889 
Q 1547 409 2034 409 
Q 2525 409 2770 889 
Q 3016 1369 3016 2328 
Q 3016 3291 2770 3770 
Q 2525 4250 2034 4250 
z
M 2034 4750 
Q 2819 4750 3233 4129 
Q 3647 3509 3647 2328 
Q 3647 1150 3233 529 
Q 2819 -91 2034 -91 
Q 1250 -91 836 529 
Q 422 1150 422 2328 
Q 422 3509 836 4129 
Q 1250 4750 2034 4750 
z
" transform="scale(0.015625)"/>
       </defs>
       <use xlink:href="#DejaVuSans-34"/>
       <use xlink:href="#DejaVuSans-30" x="63.623047"/>
       <use xlink:href="#DejaVuSans-30" x="127.246094"/>
      </g>
     </g>
    </g>
    <g id="xtick_2">
     <g id="line2d_2">
      <g>
       <use xlink:href="#m950395c215" x="169.028078" y="288.52" style="stroke: #000000; stroke-width: 0.8"/>
      </g>
     </g>
     <g id="text_2">
      <!-- 425 -->
      <g transform="translate(153.758078 307.6775) scale(0.16 -0.16)">
       <defs>
        <path id="DejaVuSans-32" d="M 1228 531 
L 3431 531 
L 3431 0 
L 469 0 
L 469 531 
Q 828 903 1448 1529 
Q 2069 2156 2228 2338 
Q 2531 2678 2651 2914 
Q 2772 3150 2772 3378 
Q 2772 3750 2511 3984 
Q 2250 4219 1831 4219 
Q 1534 4219 1204 4116 
Q 875 4013 500 3803 
L 500 4441 
Q 881 4594 1212 4672 
Q 1544 4750 1819 4750 
Q 2544 4750 2975 4387 
Q 3406 4025 3406 3419 
Q 3406 3131 3298 2873 
Q 3191 2616 2906 2266 
Q 2828 2175 2409 1742 
Q 1991 1309 1228 531 
z
" transform="scale(0.015625)"/>
        <path id="DejaVuSans-35" d="M 691 4666 
L 3169 4666 
L 3169 4134 
L 1269 4134 
L 1269 2991 
Q 1406 3038 1543 3061 
Q 1681 3084 1819 3084 
Q 2600 3084 3056 2656 
Q 3513 2228 3513 1497 
Q 3513 744 3044 326 
Q 2575 -91 1722 -91 
Q 1428 -91 1123 -41 
Q 819 9 494 109 
L 494 744 
Q 775 591 1075 516 
Q 1375 441 1709 441 
Q 2250 441 2565 725 
Q 2881 1009 2881 1497 
Q 2881 1984 2565 2268 
Q 2250 2553 1709 2553 
Q 1456 2553 1204 2497 
Q 953 2441 691 2322 
L 691 4666 
z
" transform="scale(0.015625)"/>
       </defs>
       <use xlink:href="#DejaVuSans-34"/>
       <use xlink:href="#DejaVuSans-32" x="63.623047"/>
       <use xlink:href="#DejaVuSans-35" x="127.246094"/>
      </g>
     </g>
    </g>
    <g id="xtick_3">
     <g id="line2d_3">
      <g>
       <use xlink:href="#m950395c215" x="220.929917" y="288.52" style="stroke: #000000; stroke-width: 0.8"/>
      </g>
     </g>
     <g id="text_3">
      <!-- 450 -->
      <g transform="translate(205.659917 307.6775) scale(0.16 -0.16)">
       <use xlink:href="#DejaVuSans-34"/>
       <use xlink:href="#DejaVuSans-35" x="63.623047"/>
       <use xlink:href="#DejaVuSans-30" x="127.246094"/>
      </g>
     </g>
    </g>
    <g id="xtick_4">
     <g id="line2d_4">
      <g>
       <use xlink:href="#m950395c215" x="272.831756" y="288.52" style="stroke: #000000; stroke-width: 0.8"/>
      </g>
     </g>
     <g id="text_4">
      <!-- 475 -->
      <g transform="translate(257.561756 307.6775) scale(0.16 -0.16)">
       <defs>
        <path id="DejaVuSans-37" d="M 525 4666 
L 3525 4666 
L 3525 4397 
L 1831 0 
L 1172 0 
L 2766 4134 
L 525 4134 
L 525 4666 
z
" transform="scale(0.015625)"/>
       </defs>
       <use xlink:href="#DejaVuSans-34"/>
       <use xlink:href="#DejaVuSans-37" x="63.623047"/>
       <use xlink:href="#DejaVuSans-35" x="127.246094"/>
      </g>
     </g>
    </g>
    <g id="xtick_5">
     <g id="line2d_5">
      <g>
       <use xlink:href="#m950395c215" x="324.733595" y="288.52" style="stroke: #000000; stroke-width: 0.8"/>
      </g>
     </g>
     <g id="text_5">
      <!-- 500 -->
      <g transform="translate(309.463595 307.6775) scale(0.16 -0.16)">
       <use xlink:href="#DejaVuSans-35"/>
       <use xlink:href="#DejaVuSans-30" x="63.623047"/>
       <use xlink:href="#DejaVuSans-30" x="127.246094"/>
      </g>
     </g>
    </g>
    <g id="xtick_6">
     <g id="line2d_6">
      <g>
       <use xlink:href="#m950395c215" x="376.635434" y="288.52" style="stroke: #000000; stroke-width: 0.8"/>
      </g>
     </g>
     <g id="text_6">
      <!-- 525 -->
      <g transform="translate(361.365434 307.6775) scale(0.16 -0.16)">
       <use xlink:href="#DejaVuSans-35"/>
       <use xlink:href="#DejaVuSans-32" x="63.623047"/>
       <use xlink:href="#DejaVuSans-35" x="127.246094"/>
      </g>
     </g>
    </g>
    <g id="xtick_7">
     <g id="line2d_7">
      <g>
       <use xlink:href="#m950395c215" x="428.537273" y="288.52" style="stroke: #000000; stroke-width: 0.8"/>
      </g>
     </g>
     <g id="text_7">
      <!-- 550 -->
      <g transform="translate(413.267273 307.6775) scale(0.16 -0.16)">
       <use xlink:href="#DejaVuSans-35"/>
       <use xlink:href="#DejaVuSans-35" x="63.623047"/>
       <use xlink:href="#DejaVuSans-30" x="127.246094"/>
      </g>
     </g>
    </g>
    <g id="text_8">
     <!-- Offered load [Tb/s] -->
     <g transform="translate(183.082991 327.1625) scale(0.16 -0.16)">
      <defs>
       <path id="DejaVuSans-4f" d="M 2522 4238 
Q 1834 4238 1429 3725 
Q 1025 3213 1025 2328 
Q 1025 1447 1429 934 
Q 1834 422 2522 422 
Q 3209 422 3611 934 
Q 4013 1447 4013 2328 
Q 4013 3213 3611 3725 
Q 3209 4238 2522 4238 
z
M 2522 4750 
Q 3503 4750 4090 4092 
Q 4678 3434 4678 2328 
Q 4678 1225 4090 567 
Q 3503 -91 2522 -91 
Q 1538 -91 948 565 
Q 359 1222 359 2328 
Q 359 3434 948 4092 
Q 1538 4750 2522 4750 
z
" transform="scale(0.015625)"/>
       <path id="DejaVuSans-66" d="M 2375 4863 
L 2375 4384 
L 1825 4384 
Q 1516 4384 1395 4259 
Q 1275 4134 1275 3809 
L 1275 3500 
L 2222 3500 
L 2222 3053 
L 1275 3053 
L 1275 0 
L 697 0 
L 697 3053 
L 147 3053 
L 147 3500 
L 697 3500 
L 697 3744 
Q 697 4328 969 4595 
Q 1241 4863 1831 4863 
L 2375 4863 
z
" transform="scale(0.015625)"/>
       <path id="DejaVuSans-65" d="M 3597 1894 
L 3597 1613 
L 953 1613 
Q 991 1019 1311 708 
Q 1631 397 2203 397 
Q 2534 397 2845 478 
Q 3156 559 3463 722 
L 3463 178 
Q 3153 47 2828 -22 
Q 2503 -91 2169 -91 
Q 1331 -91 842 396 
Q 353 884 353 1716 
Q 353 2575 817 3079 
Q 1281 3584 2069 3584 
Q 2775 3584 3186 3129 
Q 3597 2675 3597 1894 
z
M 3022 2063 
Q 3016 2534 2758 2815 
Q 2500 3097 2075 3097 
Q 1594 3097 1305 2825 
Q 1016 2553 972 2059 
L 3022 2063 
z
" transform="scale(0.015625)"/>
       <path id="DejaVuSans-72" d="M 2631 2963 
Q 2534 3019 2420 3045 
Q 2306 3072 2169 3072 
Q 1681 3072 1420 2755 
Q 1159 2438 1159 1844 
L 1159 0 
L 581 0 
L 581 3500 
L 1159 3500 
L 1159 2956 
Q 1341 3275 1631 3429 
Q 1922 3584 2338 3584 
Q 2397 3584 2469 3576 
Q 2541 3569 2628 3553 
L 2631 2963 
z
" transform="scale(0.015625)"/>
       <path id="DejaVuSans-64" d="M 2906 2969 
L 2906 4863 
L 3481 4863 
L 3481 0 
L 2906 0 
L 2906 525 
Q 2725 213 2448 61 
Q 2172 -91 1784 -91 
Q 1150 -91 751 415 
Q 353 922 353 1747 
Q 353 2572 751 3078 
Q 1150 3584 1784 3584 
Q 2172 3584 2448 3432 
Q 2725 3281 2906 2969 
z
M 947 1747 
Q 947 1113 1208 752 
Q 1469 391 1925 391 
Q 2381 391 2643 752 
Q 2906 1113 2906 1747 
Q 2906 2381 2643 2742 
Q 2381 3103 1925 3103 
Q 1469 3103 1208 2742 
Q 947 2381 947 1747 
z
" transform="scale(0.015625)"/>
       <path id="DejaVuSans-20" transform="scale(0.015625)"/>
       <path id="DejaVuSans-6c" d="M 603 4863 
L 1178 4863 
L 1178 0 
L 603 0 
L 603 4863 
z
" transform="scale(0.015625)"/>
       <path id="DejaVuSans-6f" d="M 1959 3097 
Q 1497 3097 1228 2736 
Q 959 2375 959 1747 
Q 959 1119 1226 758 
Q 1494 397 1959 397 
Q 2419 397 2687 759 
Q 2956 1122 2956 1747 
Q 2956 2369 2687 2733 
Q 2419 3097 1959 3097 
z
M 1959 3584 
Q 2709 3584 3137 3096 
Q 3566 2609 3566 1747 
Q 3566 888 3137 398 
Q 2709 -91 1959 -91 
Q 1206 -91 779 398 
Q 353 888 353 1747 
Q 353 2609 779 3096 
Q 1206 3584 1959 3584 
z
" transform="scale(0.015625)"/>
       <path id="DejaVuSans-61" d="M 2194 1759 
Q 1497 1759 1228 1600 
Q 959 1441 959 1056 
Q 959 750 1161 570 
Q 1363 391 1709 391 
Q 2188 391 2477 730 
Q 2766 1069 2766 1631 
L 2766 1759 
L 2194 1759 
z
M 3341 1997 
L 3341 0 
L 2766 0 
L 2766 531 
Q 2569 213 2275 61 
Q 1981 -91 1556 -91 
Q 1019 -91 701 211 
Q 384 513 384 1019 
Q 384 1609 779 1909 
Q 1175 2209 1959 2209 
L 2766 2209 
L 2766 2266 
Q 2766 2663 2505 2880 
Q 2244 3097 1772 3097 
Q 1472 3097 1187 3025 
Q 903 2953 641 2809 
L 641 3341 
Q 956 3463 1253 3523 
Q 1550 3584 1831 3584 
Q 2591 3584 2966 3190 
Q 3341 2797 3341 1997 
z
" transform="scale(0.015625)"/>
       <path id="DejaVuSans-5b" d="M 550 4863 
L 1875 4863 
L 1875 4416 
L 1125 4416 
L 1125 -397 
L 1875 -397 
L 1875 -844 
L 550 -844 
L 550 4863 
z
" transform="scale(0.015625)"/>
       <path id="DejaVuSans-54" d="M -19 4666 
L 3928 4666 
L 3928 4134 
L 2272 4134 
L 2272 0 
L 1638 0 
L 1638 4134 
L -19 4134 
L -19 4666 
z
" transform="scale(0.015625)"/>
       <path id="DejaVuSans-62" d="M 3116 1747 
Q 3116 2381 2855 2742 
Q 2594 3103 2138 3103 
Q 1681 3103 1420 2742 
Q 1159 2381 1159 1747 
Q 1159 1113 1420 752 
Q 1681 391 2138 391 
Q 2594 391 2855 752 
Q 3116 1113 3116 1747 
z
M 1159 2969 
Q 1341 3281 1617 3432 
Q 1894 3584 2278 3584 
Q 2916 3584 3314 3078 
Q 3713 2572 3713 1747 
Q 3713 922 3314 415 
Q 2916 -91 2278 -91 
Q 1894 -91 1617 61 
Q 1341 213 1159 525 
L 1159 0 
L 581 0 
L 581 4863 
L 1159 4863 
L 1159 2969 
z
" transform="scale(0.015625)"/>
       <path id="DejaVuSans-2f" d="M 1625 4666 
L 2156 4666 
L 531 -594 
L 0 -594 
L 1625 4666 
z
" transform="scale(0.015625)"/>
       <path id="DejaVuSans-73" d="M 2834 3397 
L 2834 2853 
Q 2591 2978 2328 3040 
Q 2066 3103 1784 3103 
Q 1356 3103 1142 2972 
Q 928 2841 928 2578 
Q 928 2378 1081 2264 
Q 1234 2150 1697 2047 
L 1894 2003 
Q 2506 1872 2764 1633 
Q 3022 1394 3022 966 
Q 3022 478 2636 193 
Q 2250 -91 1575 -91 
Q 1294 -91 989 -36 
Q 684 19 347 128 
L 347 722 
Q 666 556 975 473 
Q 1284 391 1588 391 
Q 1994 391 2212 530 
Q 2431 669 2431 922 
Q 2431 1156 2273 1281 
Q 2116 1406 1581 1522 
L 1381 1569 
Q 847 1681 609 1914 
Q 372 2147 372 2553 
Q 372 3047 722 3315 
Q 1072 3584 1716 3584 
Q 2034 3584 2315 3537 
Q 2597 3491 2834 3397 
z
" transform="scale(0.015625)"/>
       <path id="DejaVuSans-5d" d="M 1947 4863 
L 1947 -844 
L 622 -844 
L 622 -397 
L 1369 -397 
L 1369 4416 
L 622 4416 
L 622 4863 
L 1947 4863 
z
" transform="scale(0.015625)"/>
      </defs>
      <use xlink:href="#DejaVuSans-4f"/>
      <use xlink:href="#DejaVuSans-66" x="78.710938"/>
      <use xlink:href="#DejaVuSans-66" x="113.916016"/>
      <use xlink:href="#DejaVuSans-65" x="149.121094"/>
      <use xlink:href="#DejaVuSans-72" x="210.644531"/>
      <use xlink:href="#DejaVuSans-65" x="249.507812"/>
      <use xlink:href="#DejaVuSans-64" x="311.03125"/>
      <use xlink:href="#DejaVuSans-20" x="374.507812"/>
      <use xlink:href="#DejaVuSans-6c" x="406.294922"/>
      <use xlink:href="#DejaVuSans-6f" x="434.078125"/>
      <use xlink:href="#DejaVuSans-61" x="495.259766"/>
      <use xlink:href="#DejaVuSans-64" x="556.539062"/>
      <use xlink:href="#DejaVuSans-20" x="620.015625"/>
      <use xlink:href="#DejaVuSans-5b" x="651.802734"/>
      <use xlink:href="#DejaVuSans-54" x="690.816406"/>
      <use xlink:href="#DejaVuSans-62" x="751.900391"/>
      <use xlink:href="#DejaVuSans-2f" x="815.376953"/>
      <use xlink:href="#DejaVuSans-73" x="849.068359"/>
      <use xlink:href="#DejaVuSans-5d" x="901.167969"/>
     </g>
    </g>
   </g>
   <g id="matplotlib.axis_2">
    <g id="ytick_1">
     <g id="line2d_8">
      <defs>
       <path id="m4c6a04d94d" d="M 0 0 
L -3.5 0 
" style="stroke: #000000; stroke-width: 0.8"/>
      </defs>
      <g>
       <use xlink:href="#m4c6a04d94d" x="80.17213" y="282.872738" style="stroke: #000000; stroke-width: 0.8"/>
      </g>
     </g>
     <g id="text_9">
      <!-- $\mathdefault{10^{-3}}$ -->
      <g transform="translate(35.57213 288.951488) scale(0.16 -0.16)">
       <defs>
        <path id="DejaVuSans-31" d="M 794 531 
L 1825 531 
L 1825 4091 
L 703 3866 
L 703 4441 
L 1819 4666 
L 2450 4666 
L 2450 531 
L 3481 531 
L 3481 0 
L 794 0 
L 794 531 
z
" transform="scale(0.015625)"/>
        <path id="DejaVuSans-2212" d="M 678 2272 
L 4684 2272 
L 4684 1741 
L 678 1741 
L 678 2272 
z
" transform="scale(0.015625)"/>
        <path id="DejaVuSans-33" d="M 2597 2516 
Q 3050 2419 3304 2112 
Q 3559 1806 3559 1356 
Q 3559 666 3084 287 
Q 2609 -91 1734 -91 
Q 1441 -91 1130 -33 
Q 819 25 488 141 
L 488 750 
Q 750 597 1062 519 
Q 1375 441 1716 441 
Q 2309 441 2620 675 
Q 2931 909 2931 1356 
Q 2931 1769 2642 2001 
Q 2353 2234 1838 2234 
L 1294 2234 
L 1294 2753 
L 1863 2753 
Q 2328 2753 2575 2939 
Q 2822 3125 2822 3475 
Q 2822 3834 2567 4026 
Q 2313 4219 1838 4219 
Q 1578 4219 1281 4162 
Q 984 4106 628 3988 
L 628 4550 
Q 988 4650 1302 4700 
Q 1616 4750 1894 4750 
Q 2613 4750 3031 4423 
Q 3450 4097 3450 3541 
Q 3450 3153 3228 2886 
Q 3006 2619 2597 2516 
z
" transform="scale(0.015625)"/>
       </defs>
       <use xlink:href="#DejaVuSans-31" transform="translate(0 0.765625)"/>
       <use xlink:href="#DejaVuSans-30" transform="translate(63.623047 0.765625)"/>
       <use xlink:href="#DejaVuSans-2212" transform="translate(128.203125 39.046875) scale(0.7)"/>
       <use xlink:href="#DejaVuSans-33" transform="translate(186.855469 39.046875) scale(0.7)"/>
      </g>
     </g>
    </g>
    <g id="ytick_2">
     <g id="line2d_9">
      <g>
       <use xlink:href="#m4c6a04d94d" x="80.17213" y="142.932048" style="stroke: #000000; stroke-width: 0.8"/>
      </g>
     </g>
     <g id="text_10">
      <!-- $\mathdefault{10^{-2}}$ -->
      <g transform="translate(35.57213 149.010798) scale(0.16 -0.16)">
       <use xlink:href="#DejaVuSans-31" transform="translate(0 0.765625)"/>
       <use xlink:href="#DejaVuSans-30" transform="translate(63.623047 0.765625)"/>
       <use xlink:href="#DejaVuSans-2212" transform="translate(128.203125 39.046875) scale(0.7)"/>
       <use xlink:href="#DejaVuSans-32" transform="translate(186.855469 39.046875) scale(0.7)"/>
      </g>
     </g>
    </g>
    <g id="ytick_3">
     <g id="line2d_10">
      <defs>
       <path id="me245e61163" d="M 0 0 
L -2 0 
" style="stroke: #000000; stroke-width: 0.6"/>
      </defs>
      <g>
       <use xlink:href="#me245e61163" x="80.17213" y="240.746392" style="stroke: #000000; stroke-width: 0.6"/>
      </g>
     </g>
    </g>
    <g id="ytick_4">
     <g id="line2d_11">
      <g>
       <use xlink:href="#me245e61163" x="80.17213" y="216.10406" style="stroke: #000000; stroke-width: 0.6"/>
      </g>
     </g>
    </g>
    <g id="ytick_5">
     <g id="line2d_12">
      <g>
       <use xlink:href="#me245e61163" x="80.17213" y="198.620047" style="stroke: #000000; stroke-width: 0.6"/>
      </g>
     </g>
    </g>
    <g id="ytick_6">
     <g id="line2d_13">
      <g>
       <use xlink:href="#me245e61163" x="80.17213" y="185.058393" style="stroke: #000000; stroke-width: 0.6"/>
      </g>
     </g>
    </g>
    <g id="ytick_7">
     <g id="line2d_14">
      <g>
       <use xlink:href="#me245e61163" x="80.17213" y="173.977715" style="stroke: #000000; stroke-width: 0.6"/>
      </g>
     </g>
    </g>
    <g id="ytick_8">
     <g id="line2d_15">
      <g>
       <use xlink:href="#me245e61163" x="80.17213" y="164.609135" style="stroke: #000000; stroke-width: 0.6"/>
      </g>
     </g>
    </g>
    <g id="ytick_9">
     <g id="line2d_16">
      <g>
       <use xlink:href="#me245e61163" x="80.17213" y="156.493702" style="stroke: #000000; stroke-width: 0.6"/>
      </g>
     </g>
    </g>
    <g id="ytick_10">
     <g id="line2d_17">
      <g>
       <use xlink:href="#me245e61163" x="80.17213" y="149.335383" style="stroke: #000000; stroke-width: 0.6"/>
      </g>
     </g>
    </g>
    <g id="ytick_11">
     <g id="line2d_18">
      <g>
       <use xlink:href="#me245e61163" x="80.17213" y="100.805703" style="stroke: #000000; stroke-width: 0.6"/>
      </g>
     </g>
    </g>
    <g id="ytick_12">
     <g id="line2d_19">
      <g>
       <use xlink:href="#me245e61163" x="80.17213" y="76.16337" style="stroke: #000000; stroke-width: 0.6"/>
      </g>
     </g>
    </g>
    <g id="ytick_13">
     <g id="line2d_20">
      <g>
       <use xlink:href="#me245e61163" x="80.17213" y="58.679357" style="stroke: #000000; stroke-width: 0.6"/>
      </g>
     </g>
    </g>
    <g id="ytick_14">
     <g id="line2d_21">
      <g>
       <use xlink:href="#me245e61163" x="80.17213" y="45.117703" style="stroke: #000000; stroke-width: 0.6"/>
      </g>
     </g>
    </g>
    <g id="ytick_15">
     <g id="line2d_22">
      <g>
       <use xlink:href="#me245e61163" x="80.17213" y="34.037025" style="stroke: #000000; stroke-width: 0.6"/>
      </g>
     </g>
    </g>
    <g id="ytick_16">
     <g id="line2d_23">
      <g>
       <use xlink:href="#me245e61163" x="80.17213" y="24.668445" style="stroke: #000000; stroke-width: 0.6"/>
      </g>
     </g>
    </g>
    <g id="text_11">
     <!-- Service Blocking Ratio (SBR) -->
     <g transform="translate(28.24463 267.00875) rotate(-90) scale(0.16 -0.16)">
      <defs>
       <path id="DejaVuSans-53" d="M 3425 4513 
L 3425 3897 
Q 3066 4069 2747 4153 
Q 2428 4238 2131 4238 
Q 1616 4238 1336 4038 
Q 1056 3838 1056 3469 
Q 1056 3159 1242 3001 
Q 1428 2844 1947 2747 
L 2328 2669 
Q 3034 2534 3370 2195 
Q 3706 1856 3706 1288 
Q 3706 609 3251 259 
Q 2797 -91 1919 -91 
Q 1588 -91 1214 -16 
Q 841 59 441 206 
L 441 856 
Q 825 641 1194 531 
Q 1563 422 1919 422 
Q 2459 422 2753 634 
Q 3047 847 3047 1241 
Q 3047 1584 2836 1778 
Q 2625 1972 2144 2069 
L 1759 2144 
Q 1053 2284 737 2584 
Q 422 2884 422 3419 
Q 422 4038 858 4394 
Q 1294 4750 2059 4750 
Q 2388 4750 2728 4690 
Q 3069 4631 3425 4513 
z
" transform="scale(0.015625)"/>
       <path id="DejaVuSans-76" d="M 191 3500 
L 800 3500 
L 1894 563 
L 2988 3500 
L 3597 3500 
L 2284 0 
L 1503 0 
L 191 3500 
z
" transform="scale(0.015625)"/>
       <path id="DejaVuSans-69" d="M 603 3500 
L 1178 3500 
L 1178 0 
L 603 0 
L 603 3500 
z
M 603 4863 
L 1178 4863 
L 1178 4134 
L 603 4134 
L 603 4863 
z
" transform="scale(0.015625)"/>
       <path id="DejaVuSans-63" d="M 3122 3366 
L 3122 2828 
Q 2878 2963 2633 3030 
Q 2388 3097 2138 3097 
Q 1578 3097 1268 2742 
Q 959 2388 959 1747 
Q 959 1106 1268 751 
Q 1578 397 2138 397 
Q 2388 397 2633 464 
Q 2878 531 3122 666 
L 3122 134 
Q 2881 22 2623 -34 
Q 2366 -91 2075 -91 
Q 1284 -91 818 406 
Q 353 903 353 1747 
Q 353 2603 823 3093 
Q 1294 3584 2113 3584 
Q 2378 3584 2631 3529 
Q 2884 3475 3122 3366 
z
" transform="scale(0.015625)"/>
       <path id="DejaVuSans-42" d="M 1259 2228 
L 1259 519 
L 2272 519 
Q 2781 519 3026 730 
Q 3272 941 3272 1375 
Q 3272 1813 3026 2020 
Q 2781 2228 2272 2228 
L 1259 2228 
z
M 1259 4147 
L 1259 2741 
L 2194 2741 
Q 2656 2741 2882 2914 
Q 3109 3088 3109 3444 
Q 3109 3797 2882 3972 
Q 2656 4147 2194 4147 
L 1259 4147 
z
M 628 4666 
L 2241 4666 
Q 2963 4666 3353 4366 
Q 3744 4066 3744 3513 
Q 3744 3084 3544 2831 
Q 3344 2578 2956 2516 
Q 3422 2416 3680 2098 
Q 3938 1781 3938 1306 
Q 3938 681 3513 340 
Q 3088 0 2303 0 
L 628 0 
L 628 4666 
z
" transform="scale(0.015625)"/>
       <path id="DejaVuSans-6b" d="M 581 4863 
L 1159 4863 
L 1159 1991 
L 2875 3500 
L 3609 3500 
L 1753 1863 
L 3688 0 
L 2938 0 
L 1159 1709 
L 1159 0 
L 581 0 
L 581 4863 
z
" transform="scale(0.015625)"/>
       <path id="DejaVuSans-6e" d="M 3513 2113 
L 3513 0 
L 2938 0 
L 2938 2094 
Q 2938 2591 2744 2837 
Q 2550 3084 2163 3084 
Q 1697 3084 1428 2787 
Q 1159 2491 1159 1978 
L 1159 0 
L 581 0 
L 581 3500 
L 1159 3500 
L 1159 2956 
Q 1366 3272 1645 3428 
Q 1925 3584 2291 3584 
Q 2894 3584 3203 3211 
Q 3513 2838 3513 2113 
z
" transform="scale(0.015625)"/>
       <path id="DejaVuSans-67" d="M 2906 1791 
Q 2906 2416 2648 2759 
Q 2391 3103 1925 3103 
Q 1463 3103 1205 2759 
Q 947 2416 947 1791 
Q 947 1169 1205 825 
Q 1463 481 1925 481 
Q 2391 481 2648 825 
Q 2906 1169 2906 1791 
z
M 3481 434 
Q 3481 -459 3084 -895 
Q 2688 -1331 1869 -1331 
Q 1566 -1331 1297 -1286 
Q 1028 -1241 775 -1147 
L 775 -588 
Q 1028 -725 1275 -790 
Q 1522 -856 1778 -856 
Q 2344 -856 2625 -561 
Q 2906 -266 2906 331 
L 2906 616 
Q 2728 306 2450 153 
Q 2172 0 1784 0 
Q 1141 0 747 490 
Q 353 981 353 1791 
Q 353 2603 747 3093 
Q 1141 3584 1784 3584 
Q 2172 3584 2450 3431 
Q 2728 3278 2906 2969 
L 2906 3500 
L 3481 3500 
L 3481 434 
z
" transform="scale(0.015625)"/>
       <path id="DejaVuSans-52" d="M 2841 2188 
Q 3044 2119 3236 1894 
Q 3428 1669 3622 1275 
L 4263 0 
L 3584 0 
L 2988 1197 
Q 2756 1666 2539 1819 
Q 2322 1972 1947 1972 
L 1259 1972 
L 1259 0 
L 628 0 
L 628 4666 
L 2053 4666 
Q 2853 4666 3247 4331 
Q 3641 3997 3641 3322 
Q 3641 2881 3436 2590 
Q 3231 2300 2841 2188 
z
M 1259 4147 
L 1259 2491 
L 2053 2491 
Q 2509 2491 2742 2702 
Q 2975 2913 2975 3322 
Q 2975 3731 2742 3939 
Q 2509 4147 2053 4147 
L 1259 4147 
z
" transform="scale(0.015625)"/>
       <path id="DejaVuSans-74" d="M 1172 4494 
L 1172 3500 
L 2356 3500 
L 2356 3053 
L 1172 3053 
L 1172 1153 
Q 1172 725 1289 603 
Q 1406 481 1766 481 
L 2356 481 
L 2356 0 
L 1766 0 
Q 1100 0 847 248 
Q 594 497 594 1153 
L 594 3053 
L 172 3053 
L 172 3500 
L 594 3500 
L 594 4494 
L 1172 4494 
z
" transform="scale(0.015625)"/>
       <path id="DejaVuSans-28" d="M 1984 4856 
Q 1566 4138 1362 3434 
Q 1159 2731 1159 2009 
Q 1159 1288 1364 580 
Q 1569 -128 1984 -844 
L 1484 -844 
Q 1016 -109 783 600 
Q 550 1309 550 2009 
Q 550 2706 781 3412 
Q 1013 4119 1484 4856 
L 1984 4856 
z
" transform="scale(0.015625)"/>
       <path id="DejaVuSans-29" d="M 513 4856 
L 1013 4856 
Q 1481 4119 1714 3412 
Q 1947 2706 1947 2009 
Q 1947 1309 1714 600 
Q 1481 -109 1013 -844 
L 513 -844 
Q 928 -128 1133 580 
Q 1338 1288 1338 2009 
Q 1338 2731 1133 3434 
Q 928 4138 513 4856 
z
" transform="scale(0.015625)"/>
      </defs>
      <use xlink:href="#DejaVuSans-53"/>
      <use xlink:href="#DejaVuSans-65" x="63.476562"/>
      <use xlink:href="#DejaVuSans-72" x="125"/>
      <use xlink:href="#DejaVuSans-76" x="166.113281"/>
      <use xlink:href="#DejaVuSans-69" x="225.292969"/>
      <use xlink:href="#DejaVuSans-63" x="253.076172"/>
      <use xlink:href="#DejaVuSans-65" x="308.056641"/>
      <use xlink:href="#DejaVuSans-20" x="369.580078"/>
      <use xlink:href="#DejaVuSans-42" x="401.367188"/>
      <use xlink:href="#DejaVuSans-6c" x="469.970703"/>
      <use xlink:href="#DejaVuSans-6f" x="497.753906"/>
      <use xlink:href="#DejaVuSans-63" x="558.935547"/>
      <use xlink:href="#DejaVuSans-6b" x="613.916016"/>
      <use xlink:href="#DejaVuSans-69" x="671.826172"/>
      <use xlink:href="#DejaVuSans-6e" x="699.609375"/>
      <use xlink:href="#DejaVuSans-67" x="762.988281"/>
      <use xlink:href="#DejaVuSans-20" x="826.464844"/>
      <use xlink:href="#DejaVuSans-52" x="858.251953"/>
      <use xlink:href="#DejaVuSans-61" x="925.484375"/>
      <use xlink:href="#DejaVuSans-74" x="986.763672"/>
      <use xlink:href="#DejaVuSans-69" x="1025.972656"/>
      <use xlink:href="#DejaVuSans-6f" x="1053.755859"/>
      <use xlink:href="#DejaVuSans-20" x="1114.9375"/>
      <use xlink:href="#DejaVuSans-28" x="1146.724609"/>
      <use xlink:href="#DejaVuSans-53" x="1185.738281"/>
      <use xlink:href="#DejaVuSans-42" x="1249.214844"/>
      <use xlink:href="#DejaVuSans-52" x="1317.818359"/>
      <use xlink:href="#DejaVuSans-29" x="1387.300781"/>
     </g>
    </g>
   </g>
   <g id="line2d_24">
    <path d="M 96.365503 166.3885 
L 150.343416 129.737144 
L 204.321329 101.552319 
L 258.299241 79.460928 
L 312.277154 60.566349 
L 366.255066 45.114214 
L 420.232979 33.031311 
" clip-path="url(#p71294bca53)" style="fill: none; stroke: #ff0000; stroke-width: 1.5; stroke-linecap: square"/>
    <defs>
     <path id="me79cc1965d" d="M -1.75 3.5 
L 0 1.75 
L 1.75 3.5 
L 3.5 1.75 
L 1.75 0 
L 3.5 -1.75 
L 1.75 -3.5 
L 0 -1.75 
L -1.75 -3.5 
L -3.5 -1.75 
L -1.75 0 
L -3.5 1.75 
z
" style="stroke: #ffffff; stroke-linejoin: miter"/>
    </defs>
    <g clip-path="url(#p71294bca53)">
     <use xlink:href="#me79cc1965d" x="96.365503" y="166.3885" style="fill: #ff0000; stroke: #ffffff; stroke-linejoin: miter"/>
     <use xlink:href="#me79cc1965d" x="150.343416" y="129.737144" style="fill: #ff0000; stroke: #ffffff; stroke-linejoin: miter"/>
     <use xlink:href="#me79cc1965d" x="204.321329" y="101.552319" style="fill: #ff0000; stroke: #ffffff; stroke-linejoin: miter"/>
     <use xlink:href="#me79cc1965d" x="258.299241" y="79.460928" style="fill: #ff0000; stroke: #ffffff; stroke-linejoin: miter"/>
     <use xlink:href="#me79cc1965d" x="312.277154" y="60.566349" style="fill: #ff0000; stroke: #ffffff; stroke-linejoin: miter"/>
     <use xlink:href="#me79cc1965d" x="366.255066" y="45.114214" style="fill: #ff0000; stroke: #ffffff; stroke-linejoin: miter"/>
     <use xlink:href="#me79cc1965d" x="420.232979" y="33.031311" style="fill: #ff0000; stroke: #ffffff; stroke-linejoin: miter"/>
    </g>
   </g>
   <g id="line2d_25">
    <path d="M 96.365503 276.190909 
L 150.343416 192.285184 
L 204.321329 139.400364 
L 258.299241 105.124932 
L 312.277154 79.416399 
L 366.255066 58.639307 
L 420.232979 42.935558 
" clip-path="url(#p71294bca53)" style="fill: none; stroke: #008000; stroke-width: 1.5; stroke-linecap: square"/>
    <defs>
     <path id="m5f32d22a4d" d="M -1.166667 3.5 
L 1.166667 3.5 
L 1.166667 1.166667 
L 3.5 1.166667 
L 3.5 -1.166667 
L 1.166667 -1.166667 
L 1.166667 -3.5 
L -1.166667 -3.5 
L -1.166667 -1.166667 
L -3.5 -1.166667 
L -3.5 1.166667 
L -1.166667 1.166667 
z
" style="stroke: #ffffff; stroke-linejoin: miter"/>
    </defs>
    <g clip-path="url(#p71294bca53)">
     <use xlink:href="#m5f32d22a4d" x="96.365503" y="276.190909" style="fill: #008000; stroke: #ffffff; stroke-linejoin: miter"/>
     <use xlink:href="#m5f32d22a4d" x="150.343416" y="192.285184" style="fill: #008000; stroke: #ffffff; stroke-linejoin: miter"/>
     <use xlink:href="#m5f32d22a4d" x="204.321329" y="139.400364" style="fill: #008000; stroke: #ffffff; stroke-linejoin: miter"/>
     <use xlink:href="#m5f32d22a4d" x="258.299241" y="105.124932" style="fill: #008000; stroke: #ffffff; stroke-linejoin: miter"/>
     <use xlink:href="#m5f32d22a4d" x="312.277154" y="79.416399" style="fill: #008000; stroke: #ffffff; stroke-linejoin: miter"/>
     <use xlink:href="#m5f32d22a4d" x="366.255066" y="58.639307" style="fill: #008000; stroke: #ffffff; stroke-linejoin: miter"/>
     <use xlink:href="#m5f32d22a4d" x="420.232979" y="42.935558" style="fill: #008000; stroke: #ffffff; stroke-linejoin: miter"/>
    </g>
   </g>
   <g id="line2d_26">
    <path d="M 96.365503 256.9762 
L 150.343416 180.058472 
L 204.321329 130.10196 
L 258.299241 96.528898 
L 312.277154 72.007552 
L 366.255066 52.86021 
L 420.232979 38.756856 
" clip-path="url(#p71294bca53)" style="fill: none; stroke: #000000; stroke-width: 1.5; stroke-linecap: square"/>
    <defs>
     <path id="m9633eaa43d" d="M 0 -3.5 
L -0.785799 -1.081559 
L -3.328698 -1.081559 
L -1.271449 0.413119 
L -2.057248 2.831559 
L -0 1.336881 
L 2.057248 2.831559 
L 1.271449 0.413119 
L 3.328698 -1.081559 
L 0.785799 -1.081559 
z
" style="stroke: #ffffff; stroke-linejoin: bevel"/>
    </defs>
    <g clip-path="url(#p71294bca53)">
     <use xlink:href="#m9633eaa43d" x="96.365503" y="256.9762" style="stroke: #ffffff; stroke-linejoin: bevel"/>
     <use xlink:href="#m9633eaa43d" x="150.343416" y="180.058472" style="stroke: #ffffff; stroke-linejoin: bevel"/>
     <use xlink:href="#m9633eaa43d" x="204.321329" y="130.10196" style="stroke: #ffffff; stroke-linejoin: bevel"/>
     <use xlink:href="#m9633eaa43d" x="258.299241" y="96.528898" style="stroke: #ffffff; stroke-linejoin: bevel"/>
     <use xlink:href="#m9633eaa43d" x="312.277154" y="72.007552" style="stroke: #ffffff; stroke-linejoin: bevel"/>
     <use xlink:href="#m9633eaa43d" x="366.255066" y="52.86021" style="stroke: #ffffff; stroke-linejoin: bevel"/>
     <use xlink:href="#m9633eaa43d" x="420.232979" y="38.756856" style="stroke: #ffffff; stroke-linejoin: bevel"/>
    </g>
   </g>
   <g id="line2d_27">
    <path d="M 96.365503 118.499868 
L 150.343416 97.592746 
L 204.321329 79.597701 
L 258.299241 63.018617 
L 312.277154 50.966553 
L 366.255066 40.569011 
L 420.232979 29.609091 
" clip-path="url(#p71294bca53)" style="fill: none; stroke: #a52a2a; stroke-width: 1.5; stroke-linecap: square"/>
    <defs>
     <path id="m785127b645" d="M 0 -3.5 
L -3.328698 -1.081559 
L -2.057248 2.831559 
L 2.057248 2.831559 
L 3.328698 -1.081559 
z
" style="stroke: #ffffff; stroke-linejoin: miter"/>
    </defs>
    <g clip-path="url(#p71294bca53)">
     <use xlink:href="#m785127b645" x="96.365503" y="118.499868" style="fill: #a52a2a; stroke: #ffffff; stroke-linejoin: miter"/>
     <use xlink:href="#m785127b645" x="150.343416" y="97.592746" style="fill: #a52a2a; stroke: #ffffff; stroke-linejoin: miter"/>
     <use xlink:href="#m785127b645" x="204.321329" y="79.597701" style="fill: #a52a2a; stroke: #ffffff; stroke-linejoin: miter"/>
     <use xlink:href="#m785127b645" x="258.299241" y="63.018617" style="fill: #a52a2a; stroke: #ffffff; stroke-linejoin: miter"/>
     <use xlink:href="#m785127b645" x="312.277154" y="50.966553" style="fill: #a52a2a; stroke: #ffffff; stroke-linejoin: miter"/>
     <use xlink:href="#m785127b645" x="366.255066" y="40.569011" style="fill: #a52a2a; stroke: #ffffff; stroke-linejoin: miter"/>
     <use xlink:href="#m785127b645" x="420.232979" y="29.609091" style="fill: #a52a2a; stroke: #ffffff; stroke-linejoin: miter"/>
    </g>
   </g>
   <g id="line2d_28">
    <path d="M 96.365503 209.577242 
L 150.343416 153.265524 
L 204.321329 118.049245 
L 258.299241 89.421932 
L 312.277154 67.209429 
L 366.255066 52.567981 
L 420.232979 40.654465 
" clip-path="url(#p71294bca53)" style="fill: none; stroke: #800080; stroke-width: 1.5; stroke-linecap: square"/>
    <defs>
     <path id="m86bd3a6b0b" d="M 0 3.5 
C 0.928211 3.5 1.81853 3.131218 2.474874 2.474874 
C 3.131218 1.81853 3.5 0.928211 3.5 0 
C 3.5 -0.928211 3.131218 -1.81853 2.474874 -2.474874 
C 1.81853 -3.131218 0.928211 -3.5 0 -3.5 
C -0.928211 -3.5 -1.81853 -3.131218 -2.474874 -2.474874 
C -3.131218 -1.81853 -3.5 -0.928211 -3.5 0 
C -3.5 0.928211 -3.131218 1.81853 -2.474874 2.474874 
C -1.81853 3.131218 -0.928211 3.5 0 3.5 
z
" style="stroke: #ffffff"/>
    </defs>
    <g clip-path="url(#p71294bca53)">
     <use xlink:href="#m86bd3a6b0b" x="96.365503" y="209.577242" style="fill: #800080; stroke: #ffffff"/>
     <use xlink:href="#m86bd3a6b0b" x="150.343416" y="153.265524" style="fill: #800080; stroke: #ffffff"/>
     <use xlink:href="#m86bd3a6b0b" x="204.321329" y="118.049245" style="fill: #800080; stroke: #ffffff"/>
     <use xlink:href="#m86bd3a6b0b" x="258.299241" y="89.421932" style="fill: #800080; stroke: #ffffff"/>
     <use xlink:href="#m86bd3a6b0b" x="312.277154" y="67.209429" style="fill: #800080; stroke: #ffffff"/>
     <use xlink:href="#m86bd3a6b0b" x="366.255066" y="52.567981" style="fill: #800080; stroke: #ffffff"/>
     <use xlink:href="#m86bd3a6b0b" x="420.232979" y="40.654465" style="fill: #800080; stroke: #ffffff"/>
    </g>
   </g>
   <g id="line2d_29">
    <path d="M 96.365503 138.932995 
L 150.343416 108.535191 
L 204.321329 85.413124 
L 258.299241 69.229341 
L 312.277154 53.503689 
L 366.255066 40.675357 
L 420.232979 31.370777 
" clip-path="url(#p71294bca53)" style="fill: none; stroke: #ffff00; stroke-width: 1.5; stroke-linecap: square"/>
    <defs>
     <path id="m2cc8bd39e4" d="M -3.5 3.5 
L 3.5 3.5 
L 3.5 -3.5 
L -3.5 -3.5 
z
" style="stroke: #ffffff; stroke-linejoin: miter"/>
    </defs>
    <g clip-path="url(#p71294bca53)">
     <use xlink:href="#m2cc8bd39e4" x="96.365503" y="138.932995" style="fill: #ffff00; stroke: #ffffff; stroke-linejoin: miter"/>
     <use xlink:href="#m2cc8bd39e4" x="150.343416" y="108.535191" style="fill: #ffff00; stroke: #ffffff; stroke-linejoin: miter"/>
     <use xlink:href="#m2cc8bd39e4" x="204.321329" y="85.413124" style="fill: #ffff00; stroke: #ffffff; stroke-linejoin: miter"/>
     <use xlink:href="#m2cc8bd39e4" x="258.299241" y="69.229341" style="fill: #ffff00; stroke: #ffffff; stroke-linejoin: miter"/>
     <use xlink:href="#m2cc8bd39e4" x="312.277154" y="53.503689" style="fill: #ffff00; stroke: #ffffff; stroke-linejoin: miter"/>
     <use xlink:href="#m2cc8bd39e4" x="366.255066" y="40.675357" style="fill: #ffff00; stroke: #ffffff; stroke-linejoin: miter"/>
     <use xlink:href="#m2cc8bd39e4" x="420.232979" y="31.370777" style="fill: #ffff00; stroke: #ffffff; stroke-linejoin: miter"/>
    </g>
   </g>
   <g id="patch_3">
    <path d="M 80.17213 288.52 
L 80.17213 17.28 
" style="fill: none; stroke: #000000; stroke-width: 0.8; stroke-linejoin: miter; stroke-linecap: square"/>
   </g>
   <g id="patch_4">
    <path d="M 436.426353 288.52 
L 436.426353 17.28 
" style="fill: none; stroke: #000000; stroke-width: 0.8; stroke-linejoin: miter; stroke-linecap: square"/>
   </g>
   <g id="patch_5">
    <path d="M 80.17213 288.52 
L 436.426353 288.52 
" style="fill: none; stroke: #000000; stroke-width: 0.8; stroke-linejoin: miter; stroke-linecap: square"/>
   </g>
   <g id="patch_6">
    <path d="M 80.17213 17.28 
L 436.426353 17.28 
" style="fill: none; stroke: #000000; stroke-width: 0.8; stroke-linejoin: miter; stroke-linecap: square"/>
   </g>
   <g id="legend_1">
    <g id="patch_7">
     <path d="M 310.736978 281.52 
L 426.626353 281.52 
Q 429.426353 281.52 429.426353 278.72 
L 429.426353 156.82375 
Q 429.426353 154.02375 426.626353 154.02375 
L 310.736978 154.02375 
Q 307.936978 154.02375 307.936978 156.82375 
L 307.936978 278.72 
Q 307.936978 281.52 310.736978 281.52 
z
" style="fill: #ffffff; opacity: 0.8; stroke: #cccccc; stroke-linejoin: miter"/>
    </g>
    <g id="line2d_30">
     <path d="M 313.536978 165.361562 
L 327.536978 165.361562 
L 341.536978 165.361562 
" style="fill: none; stroke: #ff0000; stroke-width: 1.5; stroke-linecap: square"/>
     <g>
      <use xlink:href="#me79cc1965d" x="327.536978" y="165.361562" style="fill: #ff0000; stroke: #ffffff; stroke-linejoin: miter"/>
     </g>
    </g>
    <g id="text_12">
     <!-- QA -->
     <g transform="translate(352.736978 170.261562) scale(0.14 -0.14)">
      <defs>
       <path id="DejaVuSans-51" d="M 2522 4238 
Q 1834 4238 1429 3725 
Q 1025 3213 1025 2328 
Q 1025 1447 1429 934 
Q 1834 422 2522 422 
Q 3209 422 3611 934 
Q 4013 1447 4013 2328 
Q 4013 3213 3611 3725 
Q 3209 4238 2522 4238 
z
M 3406 84 
L 4238 -825 
L 3475 -825 
L 2784 -78 
Q 2681 -84 2626 -87 
Q 2572 -91 2522 -91 
Q 1538 -91 948 567 
Q 359 1225 359 2328 
Q 359 3434 948 4092 
Q 1538 4750 2522 4750 
Q 3503 4750 4090 4092 
Q 4678 3434 4678 2328 
Q 4678 1516 4351 937 
Q 4025 359 3406 84 
z
" transform="scale(0.015625)"/>
       <path id="DejaVuSans-41" d="M 2188 4044 
L 1331 1722 
L 3047 1722 
L 2188 4044 
z
M 1831 4666 
L 2547 4666 
L 4325 0 
L 3669 0 
L 3244 1197 
L 1141 1197 
L 716 0 
L 50 0 
L 1831 4666 
z
" transform="scale(0.015625)"/>
      </defs>
      <use xlink:href="#DejaVuSans-51"/>
      <use xlink:href="#DejaVuSans-41" x="78.710938"/>
     </g>
    </g>
    <g id="line2d_31">
     <path d="M 313.536978 185.910937 
L 327.536978 185.910937 
L 341.536978 185.910937 
" style="fill: none; stroke: #008000; stroke-width: 1.5; stroke-linecap: square"/>
     <g>
      <use xlink:href="#m5f32d22a4d" x="327.536978" y="185.910937" style="fill: #008000; stroke: #ffffff; stroke-linejoin: miter"/>
     </g>
    </g>
    <g id="text_13">
     <!-- SFQA-NoC -->
     <g transform="translate(352.736978 190.810937) scale(0.14 -0.14)">
      <defs>
       <path id="DejaVuSans-46" d="M 628 4666 
L 3309 4666 
L 3309 4134 
L 1259 4134 
L 1259 2759 
L 3109 2759 
L 3109 2228 
L 1259 2228 
L 1259 0 
L 628 0 
L 628 4666 
z
" transform="scale(0.015625)"/>
       <path id="DejaVuSans-2d" d="M 313 2009 
L 1997 2009 
L 1997 1497 
L 313 1497 
L 313 2009 
z
" transform="scale(0.015625)"/>
       <path id="DejaVuSans-4e" d="M 628 4666 
L 1478 4666 
L 3547 763 
L 3547 4666 
L 4159 4666 
L 4159 0 
L 3309 0 
L 1241 3903 
L 1241 0 
L 628 0 
L 628 4666 
z
" transform="scale(0.015625)"/>
       <path id="DejaVuSans-43" d="M 4122 4306 
L 4122 3641 
Q 3803 3938 3442 4084 
Q 3081 4231 2675 4231 
Q 1875 4231 1450 3742 
Q 1025 3253 1025 2328 
Q 1025 1406 1450 917 
Q 1875 428 2675 428 
Q 3081 428 3442 575 
Q 3803 722 4122 1019 
L 4122 359 
Q 3791 134 3420 21 
Q 3050 -91 2638 -91 
Q 1578 -91 968 557 
Q 359 1206 359 2328 
Q 359 3453 968 4101 
Q 1578 4750 2638 4750 
Q 3056 4750 3426 4639 
Q 3797 4528 4122 4306 
z
" transform="scale(0.015625)"/>
      </defs>
      <use xlink:href="#DejaVuSans-53"/>
      <use xlink:href="#DejaVuSans-46" x="63.476562"/>
      <use xlink:href="#DejaVuSans-51" x="120.996094"/>
      <use xlink:href="#DejaVuSans-41" x="199.707031"/>
      <use xlink:href="#DejaVuSans-2d" x="265.865234"/>
      <use xlink:href="#DejaVuSans-4e" x="301.949219"/>
      <use xlink:href="#DejaVuSans-6f" x="376.753906"/>
      <use xlink:href="#DejaVuSans-43" x="437.935547"/>
     </g>
    </g>
    <g id="line2d_32">
     <path d="M 313.536978 206.460312 
L 327.536978 206.460312 
L 341.536978 206.460312 
" style="fill: none; stroke: #000000; stroke-width: 1.5; stroke-linecap: square"/>
     <g>
      <use xlink:href="#m9633eaa43d" x="327.536978" y="206.460312" style="stroke: #ffffff; stroke-linejoin: bevel"/>
     </g>
    </g>
    <g id="text_14">
     <!-- SFQA-RSS -->
     <g transform="translate(352.736978 211.360312) scale(0.14 -0.14)">
      <use xlink:href="#DejaVuSans-53"/>
      <use xlink:href="#DejaVuSans-46" x="63.476562"/>
      <use xlink:href="#DejaVuSans-51" x="120.996094"/>
      <use xlink:href="#DejaVuSans-41" x="199.707031"/>
      <use xlink:href="#DejaVuSans-2d" x="265.865234"/>
      <use xlink:href="#DejaVuSans-52" x="301.949219"/>
      <use xlink:href="#DejaVuSans-53" x="371.431641"/>
      <use xlink:href="#DejaVuSans-53" x="434.908203"/>
     </g>
    </g>
    <g id="line2d_33">
     <path d="M 313.536978 227.009687 
L 327.536978 227.009687 
L 341.536978 227.009687 
" style="fill: none; stroke: #a52a2a; stroke-width: 1.5; stroke-linecap: square"/>
     <g>
      <use xlink:href="#m785127b645" x="327.536978" y="227.009687" style="fill: #a52a2a; stroke: #ffffff; stroke-linejoin: miter"/>
     </g>
    </g>
    <g id="text_15">
     <!-- Baseline -->
     <g transform="translate(352.736978 231.909687) scale(0.14 -0.14)">
      <use xlink:href="#DejaVuSans-42"/>
      <use xlink:href="#DejaVuSans-61" x="68.603516"/>
      <use xlink:href="#DejaVuSans-73" x="129.882812"/>
      <use xlink:href="#DejaVuSans-65" x="181.982422"/>
      <use xlink:href="#DejaVuSans-6c" x="243.505859"/>
      <use xlink:href="#DejaVuSans-69" x="271.289062"/>
      <use xlink:href="#DejaVuSans-6e" x="299.072266"/>
      <use xlink:href="#DejaVuSans-65" x="362.451172"/>
     </g>
    </g>
    <g id="line2d_34">
     <path d="M 313.536978 247.559062 
L 327.536978 247.559062 
L 341.536978 247.559062 
" style="fill: none; stroke: #800080; stroke-width: 1.5; stroke-linecap: square"/>
     <g>
      <use xlink:href="#m86bd3a6b0b" x="327.536978" y="247.559062" style="fill: #800080; stroke: #ffffff"/>
     </g>
    </g>
    <g id="text_16">
     <!-- FA-NoC -->
     <g transform="translate(352.736978 252.459062) scale(0.14 -0.14)">
      <use xlink:href="#DejaVuSans-46"/>
      <use xlink:href="#DejaVuSans-41" x="48.394531"/>
      <use xlink:href="#DejaVuSans-2d" x="114.552734"/>
      <use xlink:href="#DejaVuSans-4e" x="150.636719"/>
      <use xlink:href="#DejaVuSans-6f" x="225.441406"/>
      <use xlink:href="#DejaVuSans-43" x="286.623047"/>
     </g>
    </g>
    <g id="line2d_35">
     <path d="M 313.536978 268.108437 
L 327.536978 268.108437 
L 341.536978 268.108437 
" style="fill: none; stroke: #ffff00; stroke-width: 1.5; stroke-linecap: square"/>
     <g>
      <use xlink:href="#m2cc8bd39e4" x="327.536978" y="268.108437" style="fill: #ffff00; stroke: #ffffff; stroke-linejoin: miter"/>
     </g>
    </g>
    <g id="text_17">
     <!-- FA-RSS -->
     <g transform="translate(352.736978 273.008437) scale(0.14 -0.14)">
      <use xlink:href="#DejaVuSans-46"/>
      <use xlink:href="#DejaVuSans-41" x="48.394531"/>
      <use xlink:href="#DejaVuSans-2d" x="114.552734"/>
      <use xlink:href="#DejaVuSans-52" x="150.636719"/>
      <use xlink:href="#DejaVuSans-53" x="220.119141"/>
      <use xlink:href="#DejaVuSans-53" x="283.595703"/>
     </g>
    </g>
   </g>
  </g>
 </g>
 <defs>
  <clipPath id="p71294bca53">
   <rect x="80.17213" y="17.28" width="356.254223" height="271.24"/>
  </clipPath>
 </defs>
</svg>
